<svg width="120" height="120" viewBox="0 0 120 120" fill="none" xmlns="http://www.w3.org/2000/svg">
<rect width="120" height="120" fill="#453D36"/>
<path d="M78.1584 72.9535H76.9798L75.3118 49.5176C76.7574 50.0054 78.2474 50.5861 79.7151 51.2364L78.1584 72.9535Z" fill="#F9F5E9"/>
<path d="M72.065 72.9535H70.8863V73L69.1072 47.915C70.6639 48.2402 72.2206 48.6118 73.7773 49.0763L72.065 72.9535Z" fill="#F9F5E9"/>
<path d="M65.9715 72.9535H64.7929L62.947 47.1253C64.5705 47.2182 66.1939 47.4272 67.7729 47.6827L65.9715 72.9535Z" fill="#F9F5E9"/>
<path d="M53.7624 72.9535H52.5837L50.7824 47.7524C52.3836 47.4737 54.007 47.2646 55.6082 47.1485L53.7624 72.9535Z" fill="#F9F5E9"/>
<path d="M29.3886 72.9535H28.2099L27.1869 58.669C28.2766 57.7864 29.4108 56.9038 30.5895 56.0908L29.3886 72.9535Z" fill="#F9F5E9"/>
<path d="M41.5755 72.9535H40.419L38.8623 51.399C40.2634 50.7719 41.7311 50.1912 43.2434 49.6802L41.5755 72.9535Z" fill="#F9F5E9"/>
<path d="M35.482 72.9535H34.3033L32.9913 54.5347C34.2811 53.7217 35.6154 53.0017 36.9498 52.3049L35.482 72.9535Z" fill="#F9F5E9"/>
<path d="M47.6689 72.9535H46.4903V72.9768L44.7779 49.1692C46.3346 48.7047 47.9135 48.3099 49.448 48.0079L47.6689 72.9535Z" fill="#F9F5E9"/>
<path d="M84.2741 72.9535H83.0955L81.6054 52.0958C82.962 52.7694 84.3186 53.4894 85.6084 54.2792L84.2741 72.9535Z" fill="#F9F5E9"/>
<path d="M58.6994 72.9535L56.8536 47.0556H56.8313C58.7216 46.9859 59.9225 46.9859 61.7239 47.0324L59.8781 72.9535H58.6994Z" fill="#F9F5E9"/>
<path d="M23.2729 72.9535H22.0942L21.4715 64.1273C22.3388 63.175 23.2284 62.246 24.1179 61.4098L23.2729 72.9535Z" fill="#F9F5E9"/>
<path d="M96.461 72.9535H95.2824L94.415 60.9685C95.3713 61.8511 96.2831 62.7802 97.1282 63.6628L96.461 72.9535Z" fill="#F9F5E9"/>
<path d="M91.3906 58.3206L90.3453 72.9535H89.1667L87.9435 55.7657C89.1666 56.6018 90.3009 57.4612 91.3906 58.3206Z" fill="#F9F5E9"/>
<path d="M17.7354 68.6566L17.5797 72.9535H15C15.8605 71.4863 16.7729 70.053 17.7354 68.6566Z" fill="#F9F5E9"/>
<path d="M100.775 68.0062C101.821 69.4463 103.088 71.4206 104 72.9535H100.998L100.775 68.0062Z" fill="#F9F5E9"/>
</svg>
