<svg viewBox="0 0 48 48" xmlns="http://www.w3.org/2000/svg">
<path fill-rule="evenodd" clip-rule="evenodd" d="M48 24C48 37.2548 37.2548 48 24 48C10.7452 48 0 37.2548 0 24C0 10.7452 10.7452 0 24 0C37.2548 0 48 10.7452 48 24ZM24.7875 37.3525H24.7934C32.6618 37.3493 39.0613 30.9483 39.0645 23.0815C39.066 19.2683 37.5829 15.6828 34.8885 12.9854C32.1942 10.2879 28.611 8.80165 24.7933 8.8C16.9272 8.8 10.5251 15.2017 10.522 23.0702C10.5209 25.5855 11.1781 28.0405 12.427 30.2048L10.4023 37.6L17.9677 35.6154C20.0521 36.7524 22.399 37.3517 24.7875 37.3525Z"/>
<path fill-rule="evenodd" clip-rule="evenodd" d="M18.7456 33.289L18.3125 33.0319L13.8231 34.2096L15.0214 29.8324L14.7393 29.3836C13.552 27.4951 12.9249 25.3124 12.9258 23.0711C12.9284 16.5311 18.2495 11.2104 24.7923 11.2104C27.9606 11.2115 30.9388 12.4469 33.1783 14.689C35.4178 16.9311 36.6504 19.9112 36.6491 23.0807C36.6465 29.6212 31.3254 34.9424 24.7877 34.9424H24.7829C22.6544 34.9415 20.5668 34.3697 18.7456 33.289ZM31.4881 26.1541C31.7368 26.2743 31.9047 26.3554 31.9764 26.4751C32.0655 26.6238 32.0655 27.3378 31.7685 28.1709C31.4713 29.0038 30.0467 29.764 29.3615 29.8663C28.7472 29.9582 27.9698 29.9965 27.1156 29.725C26.5977 29.5607 25.9335 29.3413 25.0828 28.9739C21.7398 27.5304 19.4807 24.2904 19.0537 23.678C19.0238 23.6351 19.0029 23.6051 18.9912 23.5896L18.9883 23.5857C18.7996 23.3339 17.5352 21.6468 17.5352 19.9008C17.5352 18.2583 18.342 17.3973 18.7134 17.001C18.7388 16.9739 18.7622 16.9489 18.7832 16.926C19.11 16.569 19.4964 16.4798 19.7341 16.4798C19.9718 16.4798 20.2098 16.482 20.4175 16.4924C20.4432 16.4937 20.4698 16.4935 20.4974 16.4934C20.7052 16.4921 20.9643 16.4906 21.2198 17.1045C21.3181 17.3408 21.462 17.691 21.6137 18.0604C21.9206 18.8074 22.2596 19.6328 22.3192 19.7522C22.4084 19.9307 22.4678 20.1389 22.349 20.377C22.3311 20.4127 22.3146 20.4464 22.2989 20.4785C22.2096 20.6608 22.1439 20.7949 21.9924 20.9718C21.9328 21.0414 21.8712 21.1163 21.8097 21.1913C21.687 21.3407 21.5643 21.4901 21.4575 21.5965C21.279 21.7743 21.0932 21.9673 21.3012 22.3243C21.5092 22.6813 22.2248 23.8489 23.2849 24.7945C24.4244 25.8109 25.4148 26.2405 25.9168 26.4583C26.0148 26.5008 26.0943 26.5352 26.1525 26.5644C26.509 26.7429 26.717 26.7131 26.925 26.4751C27.133 26.2372 27.8164 25.4339 28.0541 25.0769C28.2918 24.7201 28.5296 24.7795 28.8564 24.8985C29.1833 25.0176 30.9365 25.8801 31.293 26.0586C31.3626 26.0935 31.4277 26.1249 31.4881 26.1541Z" />
</svg>
