<svg viewBox="0 0 48 48" xmlns="http://www.w3.org/2000/svg">
<path fill-rule="evenodd" clip-rule="evenodd" d="M24 48C37.2548 48 48 37.2548 48 24C48 10.7452 37.2548 0 24 0C10.7452 0 0 10.7452 0 24C0 37.2548 10.7452 48 24 48ZM19.5977 35C20.1814 35 20.4481 34.7403 20.7705 34.4264L20.7977 34.4L23.6803 31.597L29.6775 36.0278C30.7812 36.6368 31.5778 36.3215 31.8527 35.0031L35.7897 16.4505C36.1928 14.8345 35.1737 14.1015 34.1178 14.5809L10.9998 23.4951C9.4218 24.128 9.431 25.0084 10.7122 25.4007L16.6448 27.2523L30.3794 18.5873C31.0278 18.1941 31.6228 18.4055 31.1344 18.839L20.0061 28.8814L20.0061 28.8814L20.0061 28.8815L20.0055 28.882L20.006 28.8824L19.5977 35Z"/>
</svg>
