<svg width="17" height="16" viewBox="0 0 17 16" xmlns="http://www.w3.org/2000/svg">
<path d="M15.7973 3.69988C13.3973 -0.000122309 8.49734 -1.10012 4.69734 1.19988C0.997338 3.49988 -0.202662 8.49988 2.19734 12.1999L2.39734 12.4999L1.59734 15.4999L4.59734 14.6999L4.89734 14.8999C6.19734 15.5999 7.59734 15.9999 8.99734 15.9999C10.4973 15.9999 11.9973 15.5999 13.2973 14.7999C16.9973 12.3999 18.0973 7.49988 15.7973 3.69988ZM13.6973 11.3999C13.2973 11.9999 12.7973 12.3999 12.0973 12.4999C11.6973 12.4999 11.1973 12.6999 9.19734 11.8999C7.49734 11.0999 6.09734 9.79988 5.09734 8.29988C4.49734 7.59988 4.19734 6.69988 4.09734 5.79988C4.09734 4.99988 4.39734 4.29988 4.89734 3.79988C5.09734 3.59988 5.29734 3.49988 5.49734 3.49988H5.99734C6.19734 3.49988 6.39734 3.49988 6.49734 3.89988C6.69734 4.39988 7.19734 5.59988 7.19734 5.69988C7.29734 5.79988 7.29734 5.99988 7.19734 6.09988C7.29734 6.29988 7.19734 6.49988 7.09734 6.59988C6.99734 6.69988 6.89734 6.89988 6.79734 6.99988C6.59734 7.09988 6.49734 7.29988 6.59734 7.49988C6.99734 8.09988 7.49734 8.69988 7.99734 9.19988C8.59734 9.69988 9.19734 10.0999 9.89734 10.3999C10.0973 10.4999 10.2973 10.4999 10.3973 10.2999C10.4973 10.0999 10.9973 9.59988 11.1973 9.39988C11.3973 9.19988 11.4973 9.19988 11.6973 9.29988L13.2973 10.0999C13.4973 10.1999 13.6973 10.2999 13.7973 10.3999C13.8973 10.6999 13.8973 11.0999 13.6973 11.3999Z"/>
</svg>
