<svg width="20" height="20" viewBox="0 0 20 20" xmlns="http://www.w3.org/2000/svg">
<path d="M6.47714 2.03267L7.37381 1.746C8.21464 1.47767 9.11298 1.91183 9.47298 2.76017L10.1896 4.45017C10.5013 5.186 10.328 6.05183 9.76131 6.59017L8.18214 8.0885C8.27964 8.98517 8.58131 9.86767 9.08631 10.736C9.56587 11.5761 10.2091 12.3115 10.978 12.8985L12.8746 12.2652C13.593 12.026 14.3763 12.3018 14.8163 12.9493L15.8438 14.4577C16.3563 15.211 16.2638 16.2493 15.628 16.8877L14.9471 17.5718C14.2688 18.2527 13.2996 18.5002 12.4038 18.2202C10.2871 17.5602 8.34298 15.601 6.56798 12.3427C4.79048 9.07933 4.16298 6.30933 4.68631 4.036C4.90631 3.07933 5.58714 2.31683 6.47714 2.03267Z"/>
</svg>
