<svg viewBox="0 0 22 22" xmlns="http://www.w3.org/2000/svg">
  <path d="M10.7942 2.75C9.48793 2.75 6.25668 2.8875 4.53793 4.5375C3.30043 5.70625 2.81918 7.49375 2.75043 9.625C2.61293 12.9937 3.36918 15.125 4.60668 16.225C4.88168 16.4313 5.56918 16.9812 6.87543 17.3937V19.1125C6.87543 19.1125 6.87543 19.8 7.28793 19.9375C7.35668 19.9375 7.42543 20.0063 7.49418 20.0063C7.90668 20.0063 8.25043 19.525 8.73168 19.0438C9.14418 18.5625 9.48793 18.2188 9.69418 17.875H11.2067C12.5129 17.875 15.7442 17.7375 17.4629 16.0875C18.7004 14.85 19.1817 13.0625 19.1817 10.7937C19.2504 10.45 19.2504 10.0375 19.2504 9.625C19.1817 7.08125 18.4254 5.3625 17.3942 4.4C16.9817 4.05625 15.1942 2.75 11.3442 2.75H10.7942ZM10.6567 4.05625H11.2754C14.9192 4.05625 16.2942 5.225 16.4317 5.3625C17.2567 6.05 17.7379 7.5625 17.8067 9.55625V9.83125C17.8754 10.2438 17.8754 10.5875 17.8754 10.7937C17.8067 12.8562 17.3942 14.2312 16.5692 15.125C15.1254 16.4312 12.1004 16.5 11.2754 16.5H9.96918L8.86918 17.7375L8.18168 18.4937L8.04418 18.7C7.90668 18.8375 7.70043 19.1125 7.56293 19.1812V16.0875C6.18793 15.7437 5.63793 15.2625 5.50043 15.125C4.53793 14.3 3.98793 12.3062 4.12543 9.625V8.9375C4.26293 7.2875 4.67543 6.1875 5.36293 5.43125C6.80668 4.125 9.83168 4.05625 10.6567 4.05625ZM10.5879 5.56875C10.2442 5.56875 10.2442 6.05 10.5879 6.05C13.1317 6.05 15.3317 7.76875 15.3317 11C15.3317 11.3438 15.8129 11.3438 15.8129 11C15.8129 7.49375 13.4754 5.5 10.5879 5.56875ZM7.86337 6.20469C7.7076 6.18602 7.55069 6.22895 7.42612 6.32431C6.73862 6.66806 6.05043 7.35694 6.25668 8.11319C6.25668 8.11319 6.39418 8.73125 7.15043 10.0375C7.56293 10.6563 7.90668 11.2063 8.25043 11.6187C8.59418 12.1 9.14418 12.65 9.69418 13.0625C10.7942 13.9563 12.5129 14.85 13.2692 15.0562C13.9567 15.2625 14.7129 14.575 15.0567 13.8875C15.1942 13.6125 15.1254 13.2688 14.8504 13.0625C14.4379 12.65 13.7504 12.1687 13.2692 11.8937C12.9254 11.6875 12.5129 11.825 12.3754 12.0312L12.0317 12.4438C11.8942 12.65 11.5504 12.65 11.5504 12.65C9.28168 12.0312 8.66293 9.69375 8.66293 9.69375C8.66293 9.69375 8.66293 9.41875 8.86918 9.2125L9.28168 8.86875C9.48793 8.73125 9.62543 8.31875 9.41918 7.975C9.28168 7.76875 9.07543 7.35625 8.86918 7.15C8.66293 6.875 8.25043 6.39375 8.25043 6.39375C8.14613 6.2893 8.00987 6.22275 7.86337 6.20469ZM11.0692 6.94375C10.7254 6.875 10.6567 7.425 11.0004 7.425C12.9254 7.5625 14.0254 8.86875 13.9567 10.5188C13.8879 10.8625 14.4379 10.8625 14.4379 10.5188C14.5067 8.59375 13.2692 7.0125 11.0692 6.94375ZM11.2754 8.25C10.9317 8.18125 10.9317 8.73125 11.2754 8.73125C12.1004 8.73125 12.5129 9.2125 12.5129 10.0375C12.5817 10.3813 13.0629 10.3813 13.0629 10.0375C12.9942 8.9375 12.3754 8.25 11.2754 8.25Z" />
</svg>
