<svg width="228" height="29" viewBox="0 0 228 29" xmlns="http://www.w3.org/2000/svg">
<path d="M227.018 0.285973L227.119 0.029181H207.229C201.365 0.029181 196.371 1.28396 192.241 3.79353C188.236 6.17634 185.108 9.89287 183.354 14.3512C182.198 17.2343 181.868 19.8528 182.366 22.2067C182.634 23.4003 183.173 24.5085 183.939 25.4365C184.704 26.3645 185.673 27.0845 186.763 27.5351C188.923 28.5116 192.527 29 197.571 29H215.541L217.332 24.4012H207.229C202.348 24.4012 199.101 23.7435 197.486 22.4284C195.706 21.0103 195.907 17.7187 197.296 14.2578C199.706 8.23486 204.752 4.48218 211.73 4.48218H219.558L217.757 9.00523H223.721L227.191 0.285973H227.018ZM157.338 17.4035L169.439 5.08331L171.956 17.4035H157.338ZM54.4265 17.4502L66.2102 5.65527L68.3359 17.4502H54.4265ZM168.401 0H161.031L132.671 27.7803L143.752 0.029181H131.6L116.915 12.0634L109.355 18.5591H109.032L112.591 9.09861L108.234 0.029181H96.0262L84.9233 27.8328L78.5238 0.029181H65.1333L35.5629 29H42.9778L50.5322 21.413H69.1505L70.6345 29H90.4189L97.5716 11.0887C97.9343 10.19 98.2745 9.15698 98.615 8.00141C98.6718 9.02985 98.9141 10.0378 99.3292 10.972L105.623 25.9127H106.683L124.682 11.0304C125.755 10.0804 126.778 9.06919 127.745 8.00141C127.047 9.34956 126.562 10.3767 126.277 11.0887L119.125 29H132.186H145.956L153.426 21.413H172.764L174.315 29H181.117L174.495 0H168.401ZM38.8825 22.2067C41.153 20.0054 42.9551 17.3289 44.1717 14.3512C45.9793 9.8223 45.825 6.30307 43.7086 3.79353C41.5922 1.28396 37.5973 0.029181 31.7242 0.029181H11.8506L10.054 4.5639H23.7402C30.7199 4.5639 32.7452 8.20567 30.335 14.2286C28.9457 17.7303 27.7126 20.9227 24.8058 22.3526C22.1501 23.6599 19.3995 24.0451 14.5175 24.0451H8.18494L12.9106 12.3143H6.92959L0.234375 29H18.2502C23.3012 29 27.2923 28.5116 30.2233 27.5351C33.4515 26.4521 36.4093 24.632 38.8825 22.2067Z"/>
</svg>
