<svg width="205" height="74" viewBox="0 0 205 74" xmlns="http://www.w3.org/2000/svg">
<path d="M178.755 15.2634L180.056 11.0318H187.858C187.858 11.0318 198.421 11.0318 198.421 21.4591C198.421 31.2834 188.181 30.9802 188.181 30.9802H171.115L172.416 26.7486H187.044C187.044 26.7486 192.57 26.7486 192.57 21.3093C192.57 15.8681 187.532 15.2634 187.532 15.2634H178.755ZM157.212 15.7165L163.139 13.4509V23.8782C163.139 23.8782 162.644 30.0739 153.754 30.6787H47.0599C47.0599 30.6787 38.0039 30.8303 38.0039 22.6686V2.72028L44.0952 0.604492V21.7624C44.0952 21.7624 43.7656 25.994 48.5422 26.4471H153.422C153.422 26.4471 156.88 26.2955 157.374 23.7265V15.7165H157.212Z" fill="#9D8C7C"/>
<path d="M145.559 36.1094H151.488V41.4694H145.559V36.1094Z" />
<path d="M150.672 36.1094H156.328V41.4694H150.672V36.1094Z"/>
<path d="M32.5888 12.6382V31.4952C32.5888 31.4952 32.5888 39.3641 21.403 39.3641H4.70703L7.80631 34.6142H21.7462C21.7462 34.6142 25.8773 34.3162 25.8773 31.4952V15.3111L32.5869 12.6382H32.5888Z" fill="#9D8C7C"/>
<path d="M41.9336 44.8384V65.3615H67.8747V60.497H48.7602V57.0006H59.8525V52.2877H48.7602V49.0946H67.8747V44.8384H41.9336Z"/>
<path d="M73.5938 44.835H81.0718L87.8984 52.0886L94.725 44.835H101.714L90.4984 55.867V65.0848H84.8089V56.1685L73.5938 44.835Z"/>
<path d="M21.0945 44.835H4.51562V65.0848H20.4431C20.4431 65.0848 32.6334 64.6317 32.6334 55.4139C32.6334 46.1944 23.6945 44.835 21.0945 44.835ZM19.7936 60.4001C16.8679 60.4001 10.8546 60.5517 10.8546 60.5517V49.0665H20.7688C20.7688 49.0665 26.4583 49.368 26.4583 54.5059C26.4583 59.7954 22.7193 60.4001 19.7936 60.4001ZM113.523 44.835L101.254 65.0848H107.223L109.71 60.7051H122.144L124.797 65.0866H131.428L118.828 44.8367L113.523 44.835ZM112.528 56.3202L116.175 50.4259L119.657 56.3202H112.528ZM144.73 44.835L132.462 65.0848H138.43L140.917 60.7051H153.351L156.004 65.0866H162.635L150.035 44.8367L144.73 44.835ZM143.57 56.3202L147.217 50.4259L150.699 56.3202H143.57ZM188.67 57.9828C188.67 57.9828 196.798 58.1327 196.798 51.1823C196.798 51.1823 196.636 44.835 190.133 44.835H170.141V65.0848H176.318V57.8312H180.545L189.158 65.0848H198.261L188.67 57.9828ZM176.318 53.5996V49.0665H188.346C188.346 49.0665 190.621 49.368 190.621 51.1823C190.621 53.448 188.346 53.5996 188.346 53.5996H176.318Z" />
</svg>
