<svg viewBox="0 0 13 14"  xmlns="http://www.w3.org/2000/svg">
<rect x="0.25" y="13" width="12" height="1"/>
<rect x="1.25" y="10" width="4" height="1" transform="rotate(90 1.25 10)"/>
<rect x="12.25" y="10" width="4" height="1" transform="rotate(90 12.25 10)" />
<path d="M5.89645 10.3536C6.09171 10.5488 6.40829 10.5488 6.60355 10.3536L9.78553 7.17157C9.9808 6.97631 9.9808 6.65973 9.78553 6.46447C9.59027 6.2692 9.27369 6.2692 9.07843 6.46447L6.25 9.29289L3.42157 6.46447C3.22631 6.2692 2.90973 6.2692 2.71447 6.46447C2.5192 6.65973 2.5192 6.97631 2.71447 7.17157L5.89645 10.3536ZM5.75 -1.96702e-08L5.75 10L6.75 10L6.75 1.96702e-08L5.75 -1.96702e-08Z"/>
</svg>
