<svg width="208" height="43" viewBox="0 0 208 43" xmlns="http://www.w3.org/2000/svg">
<path d="M33.0545 31.4455L32.4608 34.9128H4.0625C5.23752 32.514 5.1633 31.162 5.1633 29.4283V5.59343C5.1633 3.91431 5.23752 2.44234 4.0625 0.10901H12.5721H31.7681L31.8176 3.64172C31.2981 3.45636 30.8776 3.29281 30.4942 3.14016C29.4676 2.80216 28.1689 2.48596 26.8207 2.49686C24.6686 2.49686 15.6395 2.49686 11.6321 2.49686V16.1261H29.4552L28.577 18.8084H11.6321V32.4486C14.9097 32.4486 25.3859 32.4486 27.6989 32.4486C30.4076 32.4922 33.1039 31.1402 33.1039 31.1402L33.0297 31.4346C33.0297 31.4455 33.0421 31.4455 33.0545 31.4455ZM75.8003 34.9128C76.1837 33.2009 76.1837 30.7804 75.8745 28.8068L73.3513 12.4081L59.5727 34.9018H56.9506L42.9493 11.3941L40.2282 29.1666C39.9314 31.2165 39.8448 33.8115 40.0922 34.9128H35.1695C36.1219 33.1355 36.3569 32.3613 36.8021 29.4392L41.2548 0.10901H43.5183L59.8572 27.4766L76.1837 0.10901H77.8906L82.4917 29.3738C82.9493 32.285 83.2956 33.1246 84.2109 34.9128H75.8003ZM117.272 34.9128L110.717 22.1666H97.5319L91.0631 34.9128H90.5065H85.9425H85.9178C87.5504 33.1246 88.107 32.2959 89.2573 30.0716L104.545 0.10901H106.264L121.304 29.2321C122.912 32.0779 123.667 32.961 125.967 34.9128H117.272ZM158.521 34.9128L151.966 22.1666H138.781L132.312 34.9128H131.768H127.192H127.167C128.8 33.1246 129.356 32.2959 130.507 30.0716L145.794 0.10901H147.513L162.566 29.2321C164.174 32.0779 164.928 32.961 167.229 34.9128H158.521ZM195.899 34.9346C191.954 31.7617 186.845 27.5529 180.451 20.88C178.62 18.9937 177.334 18.7539 176.505 18.7103V29.4283C176.505 31.1511 176.505 32.514 177.618 34.9128H168.936C170.111 32.514 170.037 31.162 170.037 29.4283V5.57163C170.037 3.8925 170.111 2.42054 168.936 0.0872027H177.445C183.259 0.0872027 197 -0.370742 197 9.6386C197 14.9268 192.238 17.7726 186.648 18.4922L184.99 18.6339C184.99 18.6339 203.122 34.2585 203.902 34.9346H195.899ZM185.621 16.4969L185.609 16.5078C189.27 15.2866 190.507 12.2227 190.383 9.6277C190.247 7.13082 188.973 1.70091 176.518 2.13705V16.9766C176.518 16.9766 183.494 17.3146 185.448 16.5623C185.559 16.5187 185.621 16.4969 185.621 16.4969ZM140.043 19.7352H150.692L145.324 9.34421L140.043 19.7352ZM98.8058 19.7352H109.455L104.087 9.34421L98.8058 19.7352Z"/>
</svg>
