<svg width="370" height="96" viewBox="0 0 370 96" fill="none" xmlns="http://www.w3.org/2000/svg">
<g opacity="0.5">
<path d="M370 0H0V95.8036H370V0Z" fill="white"/>
<path d="M364.271 5.70703H69.0312V90.1604H364.271V5.70703Z" fill="#9D8C7C"/>
<path d="M87.4492 31.8701H106.381V36.936H93.8885V44.8235H105.35V49.8894H93.8885V58.867H106.509V63.9329H87.4492V31.8701Z" fill="white"/>
<path d="M109.662 40.2706H115.393V43.6051H115.457C117.389 40.7195 120.222 39.7576 122.476 39.7576C125.76 39.7576 128.143 40.976 129.495 43.9257C130.912 41.1042 134.002 39.7576 136.9 39.7576C142.76 39.7576 144.37 43.7334 144.37 48.9916V63.8688H138.188V49.8253C138.188 47.645 138.188 44.5029 134.646 44.5029C130.525 44.5029 130.075 49.3764 130.075 52.4544V63.9329H123.893V49.8253C123.893 47.645 123.893 44.5029 120.351 44.5029C116.23 44.5029 115.779 49.3764 115.779 52.4544V63.9329H109.598V40.2706H109.662Z" fill="white"/>
<path d="M148.043 30.0747H154.225V35.9101H148.043V30.0747ZM148.043 40.2707H154.225V63.8689H148.043V40.2707Z" fill="white"/>
<path d="M157.639 40.2706H163.112V45.6571H163.176C163.434 43.4769 166.01 39.7576 169.68 39.7576C170.26 39.7576 170.903 39.7576 171.547 39.9499V46.106C170.968 45.7854 169.873 45.593 168.779 45.593C163.756 45.593 163.756 51.8132 163.756 55.2118V63.8688H157.574V40.2706H157.639Z" fill="white"/>
<path d="M173.865 41.4891C176.247 40.399 179.467 39.6936 182.107 39.6936C189.319 39.6936 192.345 42.6434 192.345 49.6331V52.647C192.345 55.0196 192.41 56.8151 192.41 58.5465C192.474 60.342 192.539 62.0093 192.667 63.8048H187.258C187.001 62.5864 187.001 60.9833 187.001 60.2779H186.936C185.52 62.9071 182.429 64.382 179.596 64.382C175.41 64.382 171.289 61.8811 171.289 57.3923C171.289 53.8654 172.963 51.8133 175.346 50.6591C177.664 49.5048 180.755 49.3124 183.33 49.3124H186.743C186.743 45.529 185.069 44.2465 181.399 44.2465C178.759 44.2465 176.183 45.2725 174.058 46.8115L173.865 41.4891ZM181.141 59.9573C183.009 59.9573 184.49 59.1237 185.455 57.8411C186.486 56.4945 186.743 54.8272 186.743 52.9676H184.103C181.334 52.9676 177.278 53.4165 177.278 57.0716C177.213 59.0595 178.887 59.9573 181.141 59.9573Z" fill="white"/>
<path d="M197.24 44.7593H192.668V40.2705H197.24V35.5252L203.422 33.5374V40.2064H208.895V44.6952H203.422V55.7889C203.422 57.7768 204.001 59.7006 206.319 59.7006C207.414 59.7006 208.509 59.4441 209.152 59.0593L209.346 63.9329C208.058 64.3176 206.641 64.51 204.774 64.51C199.944 64.51 197.304 61.5602 197.304 56.8791V44.7593H197.24Z" fill="white"/>
<path d="M229.821 62.5223C227.567 63.7407 224.991 64.382 221.707 64.382C213.916 64.382 209.344 59.8932 209.344 52.134C209.344 45.3367 212.95 39.6936 220.355 39.6936C229.112 39.6936 231.624 45.7214 231.624 53.9295H215.268C215.525 57.7129 218.23 59.8932 222.029 59.8932C224.991 59.8932 227.567 58.803 229.885 57.5205V62.5223H229.821ZM225.635 49.7613C225.442 46.8115 224.09 44.2465 220.612 44.2465C217.135 44.2465 215.397 46.6192 215.139 49.7613H225.635Z" fill="white"/>
<path d="M248.177 45.2083C246.309 44.5671 244.893 44.1823 242.639 44.1823C240.965 44.1823 239.033 44.7594 239.033 46.8115C239.033 50.5949 249.787 48.1581 249.787 56.6868C249.787 62.2016 244.893 64.3819 239.87 64.3819C237.552 64.3819 235.105 63.9971 232.851 63.3558L233.238 58.2899C235.169 59.2518 237.166 59.8289 239.291 59.8289C240.836 59.8289 243.347 59.2518 243.347 56.9433C243.347 52.3263 232.594 55.4684 232.594 46.9397C232.594 41.8738 237.037 39.6294 241.866 39.6294C244.764 39.6294 246.631 40.0783 248.563 40.5272L248.177 45.2083Z" fill="white"/>
<path d="M262.273 31.8704H270.194L282.428 55.7892H282.493V31.8704H288.674V63.869H280.819L268.52 39.9502H268.455V63.869H262.273V31.8704Z" fill="white"/>
<path d="M293.699 31.8704H304.904C309.025 31.8704 315.271 33.0887 315.271 40.0784C315.271 43.8618 312.695 46.5551 308.896 47.1964V47.2605C313.275 47.6452 316.237 50.595 316.237 54.5708C316.237 62.6506 308.96 63.8049 304.904 63.8049H293.699V31.8704ZM300.138 44.8237H302.779C305.483 44.8237 308.831 44.2466 308.831 40.9121C308.831 37.1928 305.547 36.9363 302.65 36.9363H300.138V44.8237ZM300.138 58.8672H303.165C306.127 58.8672 309.797 58.1618 309.797 54.4426C309.797 50.2744 306.385 49.6331 303.165 49.6331H300.138V58.8672Z" fill="white"/>
<path d="M319.777 31.8704H328.535C338.387 31.8704 347.08 35.1408 347.08 47.8376C347.08 60.5345 338.387 63.8049 328.535 63.8049H319.777V31.8704ZM326.217 58.8672H329.823C335.232 58.8672 340.383 54.8914 340.383 47.9017C340.383 40.9121 335.167 36.9363 329.823 36.9363H326.217V58.8672Z" fill="white"/>
<path d="M63.2975 5.70728H5.73047V90.1606H63.2975V5.70728Z" fill="#9D8C7C"/>
<path d="M29.4269 57.0718C30.1996 36.1669 41.4683 17.6988 58.5323 5.70728H47.1992C33.4192 17.5705 24.2111 34.3073 23.8247 52.9037C23.5028 67.6526 26.4004 78.8104 34.1919 90.1606H37.0896C30.9079 79.7723 28.9761 68.871 29.4269 57.0718Z" fill="white"/>
<path d="M31.2958 90.0964C24.4702 82.9144 16.2923 69.3839 15.3264 54.7632C14.1673 36.8722 20.0915 19.4301 32.0685 5.64307H41.341C26.6595 20.1996 19.2544 39.3731 20.9286 58.4184C22.0232 70.6022 26.8527 79.5798 34.1934 90.1605H31.2958V90.0964Z" fill="#453D36"/>
<path d="M34.4482 72.7826C40.6299 66.4342 46.4253 57.2001 48.2282 48.0301C50.8039 35.1409 47.4555 24.496 47.198 23.7907C47.0692 23.2777 46.9404 22.8929 47.0692 22.8929C47.2624 22.8288 48.5502 25.1373 49.4517 26.9328C51.1903 30.4597 52.9933 36.231 52.9289 42.836C52.8001 51.044 49.9025 59.188 44.5579 65.4723C42.6905 67.6526 40.6299 69.5763 38.183 71.1795C36.6376 72.2055 33.9331 73.6804 33.8687 73.5521C33.7399 73.4239 34.0619 73.1674 34.4482 72.7826Z" fill="#453D36"/>
<path d="M34.1926 72.975C38.3137 68.2297 42.0485 61.4965 43.0144 54.8916C44.3022 45.6575 41.4689 38.2831 41.2758 37.7701C41.147 37.3853 41.0826 37.1929 41.147 37.1288C41.2758 37.0647 42.306 38.6678 43.0144 39.8862C44.3666 42.323 45.912 46.2988 46.1696 50.9799C46.4272 56.7512 44.6886 62.6508 41.147 67.332C39.9235 68.9351 38.5069 70.41 36.8327 71.6284C35.738 72.462 33.935 73.5521 33.8706 73.488C33.7418 73.4239 33.9994 73.2315 34.1926 72.975Z" fill="#453D36"/>
</g>
</svg>
