<svg width="167" height="101" viewBox="0 0 167 101" fill="none" xmlns="http://www.w3.org/2000/svg">
<g opacity="0.5">
<path fill-rule="evenodd" clip-rule="evenodd" d="M166.67 0L118.969 26.3462H138.126C128.356 47.6923 130.271 72.6923 143.49 92.1154C137.743 57.6923 151.727 24.4231 166.67 0Z" fill="#453D36"/>
<path fill-rule="evenodd" clip-rule="evenodd" d="M6.51579 100H7.85679V92.3077H6.51579V100ZM6.32422 89.8077C6.32422 89.2308 6.70736 88.8462 7.0905 88.8462C7.47364 88.8462 7.85679 89.2308 7.85679 89.8077C7.85679 90.3847 7.47364 90.7693 7.0905 90.7693C6.70736 90.9616 6.32422 90.3847 6.32422 89.8077ZM9.58092 92.1154H10.7303V92.8846C11.1135 92.3077 11.4966 91.9231 12.2629 91.9231C12.4545 91.9231 12.6461 91.9231 12.8376 91.9231V93.4616C12.6461 93.4616 12.4545 93.2693 12.2629 93.2693C11.6882 93.2693 11.3051 93.6539 10.9219 93.8462V99.6154H9.58092V92.1154ZM14.3702 99.6154V98.2693C14.7533 98.4616 15.7112 98.6539 16.2859 98.6539C17.2438 98.6539 17.6269 98.2693 17.6269 97.6923C17.6269 97.1154 17.2438 96.9231 16.2859 96.5385C15.3281 96.1539 14.3702 95.577 14.3702 94.2308C14.3702 92.6923 15.3281 91.9231 16.8606 91.9231C17.6269 91.9231 18.2016 92.1154 18.5848 92.3077V93.6539C18.01 93.4616 17.4353 93.2693 16.8606 93.2693C16.0943 93.2693 15.7112 93.6539 15.7112 94.2308C15.7112 94.8077 16.0943 95 17.0522 95.3846C18.01 95.7693 19.1595 96.1539 19.1595 97.6923C19.1595 99.2308 18.2016 100 16.4775 100C15.7112 100 14.7533 99.8077 14.3702 99.6154ZM20.1173 97.8847V93.6539H18.9679V92.5H20.1173L20.5005 90.577H21.8415V92.5H23.5656V93.6539H21.8415V97.6923C21.8415 98.4616 22.2246 98.8462 22.7993 98.8462C23.1825 98.8462 23.5656 98.8462 23.7572 98.6539V99.8077C23.374 100 22.9909 100 22.4162 100C20.8836 100 20.1173 99.4231 20.1173 97.8847ZM33.3357 96.5385L32.3779 93.8462C32.1863 93.2693 31.8031 92.5 31.8031 91.9231C31.6116 92.3077 31.42 93.077 31.2284 93.8462L30.2706 96.5385H33.3357ZM30.8453 90.3847H32.761L36.4008 100H34.4851L33.7189 97.6923H29.5043L28.738 100H27.0139L30.8453 90.3847ZM41.1901 95.9616C41.1901 94.4231 40.807 93.2693 39.2744 93.2693C38.6997 93.2693 38.3166 93.4616 37.9334 93.6539V98.4616C38.3166 98.6539 38.6997 98.6539 39.0828 98.6539C40.6154 98.6539 41.1901 97.5 41.1901 95.9616ZM36.5924 99.4231V88.8462H38.125V92.5C38.3166 92.1154 39.0828 91.7308 39.8491 91.7308C41.9564 91.7308 42.9143 93.4616 42.9143 95.7693C42.9143 98.077 41.5733 100 39.2744 100C38.3166 100 37.3587 99.8077 36.5924 99.4231ZM44.4468 97.3077V92.1154H45.9794V97.1154C45.9794 98.2693 46.3625 98.8462 47.512 98.8462C48.0867 98.8462 48.6614 98.4616 49.0445 98.2693V92.1154H50.7687V100H49.2361V99.4231C48.853 99.8077 48.0867 100.192 47.1288 100.192C45.0215 100 44.4468 98.8462 44.4468 97.3077ZM58.4315 98.6539C61.1135 98.6539 61.6882 97.1154 61.6882 95.1923C61.6882 93.2693 61.1135 91.7308 58.6231 91.7308H57.2821V98.6539H58.4315ZM55.5579 90.3847H58.8146C62.2629 90.3847 63.6039 92.6923 63.6039 95.1923C63.6039 97.5 62.2629 100 58.8146 100H55.5579V90.3847ZM65.1365 88.8462H66.669V92.6923C67.0522 92.3077 67.8185 91.9231 68.7763 91.9231C70.692 91.9231 71.2668 93.077 71.2668 94.8077V100H69.7342V95C69.7342 93.8462 69.351 93.2693 68.2016 93.2693C67.6269 93.2693 67.0522 93.6539 66.669 93.8462V100H65.1365V88.8462ZM75.4813 98.2693V96.5385C75.2897 96.5385 75.0982 96.5385 74.9066 96.5385C73.5656 96.5385 72.9909 96.9231 72.9909 97.6923C72.9909 98.4616 73.374 98.8462 74.1403 98.8462C74.715 98.8462 75.0982 98.6539 75.4813 98.2693ZM75.6729 99.2308C75.2897 99.6154 74.715 100 73.7572 100C72.4162 100 71.4583 99.2308 71.4583 97.8847C71.4583 96.3462 72.7993 95.577 74.715 95.577C74.9066 95.577 75.2897 95.577 75.4813 95.577V95C75.4813 93.8462 75.0982 93.4616 73.9487 93.4616C73.1825 93.4616 72.6077 93.6539 72.033 93.8462V92.5C72.7993 92.3077 73.374 92.1154 74.1403 92.1154C75.8645 92.1154 76.8223 92.8847 76.8223 94.6154V98.077C76.8223 98.6539 77.0139 98.6539 77.397 98.6539H77.5886V99.8077C77.397 99.8077 77.2054 100 76.8223 100C76.2476 100 75.8645 99.6154 75.6729 99.2308Z" fill="#9D8C7C"/>
<path fill-rule="evenodd" clip-rule="evenodd" d="M82.567 95.9615C82.567 94.4231 82.1839 93.2692 80.6513 93.2692C80.0766 93.2692 79.6935 93.4615 79.3103 93.6538V98.4615C79.6935 98.6538 80.0766 98.6538 80.4598 98.6538C81.9923 98.6538 82.567 97.5 82.567 95.9615ZM77.7778 99.4231V88.8461H79.3103V92.5C79.5019 92.1154 80.2682 91.7307 81.0345 91.7307C83.1418 91.7307 84.0996 93.4615 84.0996 95.7692C84.0996 98.0769 82.7586 100 80.4598 100C79.5019 100 78.5441 99.8077 77.7778 99.4231ZM85.8238 100H87.1648V92.3077H85.8238V100ZM85.6322 89.8077C85.6322 89.2307 86.0153 88.8461 86.3985 88.8461C86.7816 88.8461 87.1648 89.2307 87.1648 89.8077C87.1648 90.3846 86.7816 90.7692 86.3985 90.7692C86.0153 90.9615 85.6322 90.3846 85.6322 89.8077ZM95.0192 98.6538C96.1686 98.6538 96.7433 98.0769 96.7433 97.1154C96.7433 96.1538 96.1686 95.5769 95.0192 95.5769H93.4866V98.6538H95.0192ZM95.0192 94.423C96.1686 94.423 96.5517 93.8461 96.5517 93.0769C96.5517 92.3077 96.1686 91.7307 95.0192 91.7307H93.4866V94.423C93.6782 94.423 95.0192 94.423 95.0192 94.423ZM92.1456 90.3846H95.2107C97.1264 90.3846 98.0843 91.3461 98.0843 92.8846C98.0843 94.0384 97.318 94.8077 96.5517 95C97.5096 95.1923 98.2759 95.9615 98.2759 97.3077C98.2759 99.0384 97.1264 100 95.2107 100H91.954C92.1456 100 92.1456 90.3846 92.1456 90.3846ZM104.023 98.2692V96.5384C103.831 96.5384 103.64 96.5384 103.448 96.5384C102.107 96.5384 101.533 96.923 101.533 97.6923C101.533 98.4615 101.916 98.8461 102.682 98.8461C103.257 98.8461 103.831 98.6538 104.023 98.2692ZM104.215 99.2307C103.831 99.6154 103.257 100 102.299 100C100.958 100 100 99.2308 100 97.8846C100 96.3461 101.341 95.5769 103.257 95.5769C103.448 95.5769 103.831 95.5769 104.023 95.5769V95C104.023 93.8461 103.64 93.4615 102.49 93.4615C101.724 93.4615 101.149 93.6538 100.575 93.8461V92.5C101.341 92.3077 101.916 92.1154 102.682 92.1154C104.406 92.1154 105.364 92.8846 105.364 94.6154V98.0769C105.364 98.6538 105.556 98.6538 105.939 98.6538H106.13V99.8077C105.939 99.8077 105.747 100 105.364 100C104.789 100 104.406 99.6154 104.215 99.2307ZM107.854 92.1154H109.387V92.6923C109.962 92.1154 110.728 91.923 111.494 91.923C113.41 91.923 113.985 93.0769 113.985 94.6154V100H112.452V95C112.452 93.8461 112.069 93.2692 110.92 93.2692C110.345 93.2692 109.77 93.6538 109.387 93.8461V100H107.854V92.1154ZM118.199 98.8461L115.9 95.9615V100H114.176V89.0384H115.9V95.5769L118.774 92.1154H120.498L117.625 95.7692L119.732 98.4615C119.923 98.8461 120.115 99.0384 120.498 99.0384C120.498 99.0384 120.498 99.0384 120.69 99.0384V100C120.498 100 120.307 100 120.115 100C119.349 100 118.774 99.8077 118.199 98.8461ZM0 90.3846H6.32184V91.7307H1.91571V94.423H5.9387V95.5769H1.91571V100H0V90.3846ZM82.567 26.9231H102.874C114.368 26.9231 120.69 32.5 120.69 40.7692C120.69 47.5 116.667 51.5384 112.261 52.6923V52.8846C118.008 54.2307 122.222 58.2692 122.222 65.1923C122.222 75 114.943 80.9615 103.257 80.9615H82.567V26.9231ZM101.341 49.0384C106.705 49.0384 108.812 46.5384 108.812 42.5C108.812 38.8461 106.513 36.3461 101.341 36.3461H94.2529V49.0384H101.341ZM101.533 71.7307C106.705 71.7307 109.579 69.2307 109.579 64.6154C109.579 59.8077 106.897 57.3077 101.533 57.3077H94.2529V71.9231L101.533 71.7307ZM46.9349 26.9231H59.9617L79.3103 80.9615H66.6667L63.2184 70.1923H42.5287L38.8889 80.9615H26.8199L46.9349 26.9231ZM60.1533 60.7692L55.7471 46.9231C54.7893 43.6538 53.6399 40.5769 53.0651 38.0769H52.8736C52.1073 40.5769 51.1494 43.8461 50.1916 46.9231L45.5939 60.7692H60.1533ZM0 26.9231H31.8008V36.7307H11.3027V49.2307H29.5019V58.2692H11.3027V80.9615H0V26.9231ZM12.8352 12.6923H11.1111C10.728 12.6923 10.1533 12.5 9.96169 12.1154C9.57854 11.9231 9.38697 11.3461 9.38697 10.9615V9.80767C9.38697 9.23075 9.57854 8.84614 9.96169 8.46152C10.3448 8.0769 10.728 7.8846 11.1111 7.8846C11.4943 7.8846 11.8774 8.0769 12.2605 8.46152C12.6437 8.84614 12.8352 9.23075 12.8352 9.80767V12.6923ZM11.1111 6.34613C10.1533 6.34613 9.57854 6.73075 8.81226 7.30767C8.23755 8.0769 7.85441 8.84613 7.85441 9.80767V10.9615C7.85441 11.9231 8.23755 12.6923 8.81226 13.4615C9.38697 14.0384 10.1533 14.4231 11.1111 14.4231H12.8352C12.8352 14.8077 12.6437 15.1923 12.4521 15.5769C12.069 15.7692 11.6858 15.7692 11.3027 15.7692H9.57854C9.38697 15.7692 9.38697 15.7692 9.38697 15.9615V17.3077L9.57854 17.5H11.3027C12.069 17.5 12.8352 17.1154 13.41 16.5384C13.9847 15.9615 14.3678 15.1923 14.3678 14.2308V9.80767C14.3678 8.84613 13.9847 8.0769 13.41 7.30767C12.8352 6.73075 12.069 6.34613 11.1111 6.34613ZM22.0307 3.0769H21.0728C20.8812 3.0769 20.8812 3.0769 20.8812 3.26921V11.5384C20.8812 11.9231 20.8812 12.3077 20.6897 12.5C20.4981 12.6923 20.3065 12.6923 19.9234 12.6923H16.092C15.9004 12.6923 15.9004 12.6923 15.9004 12.8846V14.0384C15.9004 14.2308 15.9004 14.2308 16.092 14.2308H19.9234C20.6897 14.2308 21.2644 14.0384 21.6475 13.4615C22.0307 12.8846 22.2222 12.3077 22.2222 11.5384V3.46152C22.2222 3.26921 22.2222 3.26921 22.0307 3.0769Z" fill="#9D8C7C"/>
<path fill-rule="evenodd" clip-rule="evenodd" d="M17.6252 4.80762C17.4336 4.80762 17.4336 4.80762 17.4336 4.99992V12.4999C17.4336 12.6922 17.4336 12.6922 17.6252 12.6922H18.7746C18.9662 12.6922 18.9662 12.6922 18.9662 12.4999V4.99992C18.9662 4.80762 18.9662 4.80762 18.7746 4.80762H17.6252Z" fill="#9D8C7C"/>
<path fill-rule="evenodd" clip-rule="evenodd" d="M17.6252 4.8077H20.4987C20.6903 4.8077 20.6903 4.8077 20.6903 4.61539V4.03847C20.6903 3.84616 20.6903 3.84616 20.4987 3.84616H18.7746V2.88463C18.7746 2.69232 18.7746 2.69232 18.9662 2.50001C19.1577 2.50001 19.1577 2.50001 19.3493 2.50001C19.5409 2.50001 19.7324 2.69232 19.7324 2.88463V3.07693L20.1156 2.88463C20.1156 2.88463 20.3072 2.88463 20.3072 2.69232V2.50001C20.1156 1.92309 19.7324 1.73078 19.1577 1.73078C18.9662 1.53847 18.583 1.73078 18.3914 1.92309C18.1999 2.3077 18.0083 2.69232 18.0083 2.88463V3.84616H17.6252C17.4336 3.84616 17.4336 3.84616 17.4336 4.03847L17.6252 4.8077C17.4336 4.61539 17.4336 4.8077 17.6252 4.8077ZM25.0964 3.07693H23.947C23.7554 3.07693 23.7554 3.07693 23.7554 3.26924V14.0385C23.7554 14.2308 23.7554 14.2308 23.947 14.2308H25.0964C25.288 14.2308 25.288 14.2308 25.288 14.0385V3.46155C25.288 3.26924 25.288 3.26924 25.0964 3.07693ZM36.2075 17.5H35.2497C35.0581 17.5 35.0581 17.5 35.0581 17.6923V18.8462C35.0581 19.0385 35.0581 19.0385 35.2497 19.0385H36.2075C36.3991 19.0385 36.3991 19.0385 36.3991 18.8462L36.2075 17.5ZM34.4834 17.5H33.5255C33.334 17.5 33.334 17.5 33.334 17.6923V18.8462C33.334 19.0385 33.334 19.0385 33.5255 19.0385H34.4834C34.675 19.0385 34.675 19.0385 34.675 18.8462L34.4834 17.5C34.675 17.5 34.675 17.5 34.4834 17.5ZM55.1731 15.9615H54.2152C54.0236 15.9615 54.0236 15.9615 54.0236 16.1539V17.3077C54.0236 17.5 54.0236 17.5 54.2152 17.5H55.1731C55.3646 17.5 55.3646 17.5 55.3646 17.3077L55.1731 15.9615C55.3646 15.9615 55.3646 15.9615 55.1731 15.9615ZM65.1347 11.3462C65.1347 11.7308 65.1347 12.1154 64.9432 12.3077C64.7516 12.5 64.56 12.5 64.1769 12.5H60.1539V10C60.537 9.42309 61.1117 9.03847 61.878 8.46155C62.6443 8.07693 63.219 7.88462 63.6022 7.88462C64.1769 7.88462 64.7516 8.07693 64.9432 8.65386C65.1347 9.03847 65.1347 9.42309 65.1347 10V11.3462ZM63.6022 6.34616C62.6443 6.34616 61.4949 6.92309 59.9623 8.07693V3.46155C59.9623 3.26924 59.9623 3.26924 59.7708 3.26924H58.6213C58.4298 3.26924 58.4298 3.26924 58.4298 3.46155V12.6923H56.1309C55.7478 12.6923 55.5562 12.6923 55.5562 12.5V12.3077V6.92309C55.5562 6.73078 55.5562 6.73078 55.3646 6.73078H54.2152C54.0236 6.73078 54.0236 6.73078 54.0236 6.92309V11.9231C54.0236 12.1154 54.0236 12.3077 53.8321 12.3077C53.8321 12.3077 53.6405 12.5 53.4489 12.5H42.1462V9.03847C42.1462 8.26924 41.9547 7.69232 41.38 7.11539C40.9968 6.53847 40.2305 6.34616 39.6558 6.34616C38.8895 6.34616 38.3148 6.53847 37.9317 7.11539C37.357 7.69232 37.1654 8.26924 37.1654 9.03847V14.4231H33.1424C32.7593 14.4231 32.1846 14.2308 31.993 13.8462C31.6098 13.4615 31.4183 13.0769 31.4183 12.5C31.4183 12.1154 31.4183 11.7308 31.6098 11.5385C31.8014 11.1539 31.993 10.9615 32.3761 10.7692L32.9508 10.5769C32.9508 10.5769 33.1424 10.5769 33.1424 10.3846C33.1424 10.3846 33.1424 10.3846 33.1424 10.1923L32.5677 9.23078C32.5677 9.23078 32.5677 9.23078 32.3761 9.03847L31.8014 9.23078C31.2267 9.61539 30.8436 10 30.4604 10.5769C30.0773 11.1539 29.8857 11.7308 29.8857 12.3077C29.8857 13.2692 30.2688 14.0385 30.8436 14.6154C31.4183 15.1923 32.1845 15.5769 33.1424 15.5769H37.9317C38.1232 15.5769 38.3148 15.5769 38.5064 15.3846C38.698 15.1923 38.698 15 38.698 14.8077V9.03847C38.698 8.65386 38.8895 8.46155 39.0811 8.26924C39.2727 8.07693 39.4642 7.88462 39.8474 7.88462C40.2305 7.88462 40.4221 8.07693 40.6137 8.26924C40.8052 8.46155 40.9968 8.84616 40.9968 9.03847V13.2692C40.9968 13.4615 40.9968 13.6539 41.1884 13.8462C41.38 14.0385 41.5715 14.0385 41.7631 14.0385H53.8321C54.4068 14.0385 54.7899 13.8462 55.1731 13.4615C55.5562 13.8462 56.1309 14.0385 56.7056 14.0385H64.1769C64.9432 14.0385 65.7094 13.8462 66.0926 13.2692C66.4757 12.8846 66.8589 12.1154 66.8589 11.3462V10C66.8589 8.84616 66.6673 8.07693 66.0926 7.50001C65.3263 6.73078 64.56 6.34616 63.6022 6.34616Z" fill="#9D8C7C"/>
<path fill-rule="evenodd" clip-rule="evenodd" d="M62.0666 6.15385H63.0244C63.216 6.15385 63.216 6.15385 63.216 5.96154V5C63.216 4.80769 63.216 4.80769 63.0244 4.80769H62.0666C61.875 4.80769 61.875 4.80769 61.875 5L62.0666 6.15385C61.875 6.15385 61.875 6.15385 62.0666 6.15385ZM71.262 12.6923H69.7294C69.3463 12.6923 68.9631 12.5 68.58 12.1154C68.1968 11.7308 68.0053 11.3462 68.1968 10.7692V9.80769C68.1968 9.23077 68.3884 8.84616 68.58 8.46154C68.9631 7.88462 69.921 7.69231 70.4957 8.26923L70.6873 8.46154C71.0704 8.84616 71.262 9.23077 71.0704 9.80769L71.262 12.6923ZM82.3731 6.73077H81.4152C81.2237 6.73077 81.2237 6.73077 81.2237 6.92308V12.3077C81.2237 12.5 81.2237 12.6923 81.0321 12.6923C81.0321 12.6923 80.8405 12.8846 80.6489 12.8846H72.603V9.80769C72.603 8.84615 72.2198 8.07692 71.6451 7.30769C71.0704 6.73077 70.3041 6.34615 69.5378 6.34615C68.7716 6.34615 68.0053 6.73077 67.4306 7.30769C66.8558 7.88462 66.4727 8.84615 66.4727 9.80769V10.9615C66.4727 11.9231 66.8558 12.6923 67.4306 13.4615C68.0053 14.0385 68.7716 14.4231 69.5378 14.4231H71.0704C71.0704 14.8077 70.8788 15.1923 70.6873 15.5769C70.4957 15.7692 70.1126 15.9615 69.7294 15.9615H68.1968C68.0053 15.9615 68.0053 15.9615 68.0053 16.1538V17.3077C68.0053 17.5 68.0053 17.5 68.1968 17.5H69.7294C70.4957 17.5 71.0704 17.1154 71.6451 16.5385C72.2198 15.9615 72.4114 15.1923 72.603 14.2308H80.6489C81.2237 14.2308 81.6068 14.0385 81.9899 13.6538C82.3731 13.2692 82.5647 12.6923 82.5647 12.1154V6.92308C82.5647 6.73077 82.5647 6.73077 82.3731 6.73077ZM82.1815 15.9615H81.2237C81.0321 15.9615 81.0321 15.9615 81.0321 16.1538V17.3077C81.0321 17.5 81.0321 17.5 81.2237 17.5H82.1815C82.3731 17.3077 82.3731 17.3077 82.3731 17.1154L82.1815 15.9615C82.3731 15.9615 82.3731 15.9615 82.1815 15.9615ZM87.1624 2.30769H85.4382V1.34615C85.4382 1.15385 85.4382 1.15385 85.6298 0.961539C85.6298 0.769231 85.8214 0.769231 86.0129 0.769231C86.2045 0.769231 86.3961 0.961539 86.3961 1.15385V1.34615C86.3961 1.34615 86.3961 1.53846 86.5876 1.53846L86.9708 1.34615C86.9708 1.34615 86.9708 1.34615 86.9708 1.15385V0.961539C86.9708 0.192308 86.5876 0 86.0129 0C85.6298 0 85.2467 0.192308 85.0551 0.384615C84.8635 0.576923 84.6719 0.961539 84.6719 1.34615V2.30769H84.2888C84.0972 2.30769 84.0972 2.30769 84.0972 2.5V3.07692C84.0972 3.26923 84.0972 3.26923 84.2888 3.26923H87.1624C87.3539 3.26923 87.3539 3.26923 87.3539 3.07692L87.1624 2.30769Z" fill="#9D8C7C"/>
<path fill-rule="evenodd" clip-rule="evenodd" d="M86.9699 3.0769H85.8205C85.6289 3.0769 85.6289 3.0769 85.6289 3.26921V14.0384C85.6289 14.2308 85.6289 14.2308 85.8205 14.2308H86.9699C87.1615 14.2308 87.1615 14.2308 87.1615 14.0384V3.46152C87.1615 3.26921 87.1615 3.26921 86.9699 3.0769ZM95.399 9.61537H98.2726C98.4642 9.61537 98.4642 9.61537 98.4642 9.42306V8.84614C98.4642 8.65383 98.4642 8.65383 98.2726 8.65383H96.5484V7.69229C96.5484 7.49998 96.5484 7.49998 96.74 7.30767C96.74 7.11537 96.9316 7.11537 97.1232 7.11537C97.3147 7.11537 97.5063 7.30767 97.5063 7.49998L97.6979 7.69229C97.6979 7.69229 97.6979 7.8846 97.8894 7.8846L98.2726 7.69229V7.49998C98.081 6.92306 97.6979 6.73075 97.1232 6.73075C96.74 6.73075 96.3569 6.92306 96.1653 7.11537C95.9737 6.92306 95.7822 7.30767 95.7822 7.69229V8.65383H95.399C95.2074 8.65383 95.2075 8.65383 95.2075 8.84614L95.399 9.61537C95.2074 9.42306 95.2074 9.61537 95.399 9.61537ZM114.556 6.15383H115.514C115.706 6.15383 115.706 6.15383 115.706 5.96152V4.99998C115.706 4.80767 115.706 4.80767 115.514 4.80767H114.556C114.365 4.80767 114.365 4.80767 114.365 4.99998L114.556 6.15383C114.365 6.15383 114.365 6.15383 114.556 6.15383Z" fill="#9D8C7C"/>
<path fill-rule="evenodd" clip-rule="evenodd" d="M120.498 6.73075H119.349C119.157 6.73075 119.157 6.73075 119.157 6.92306V12.1154C119.157 12.3077 119.157 12.5 118.966 12.5C118.966 12.5 118.774 12.6923 118.582 12.6923H115.9C115.517 12.6923 115.326 12.6923 115.326 12.5V12.3077V6.92306C115.326 6.73075 115.326 6.73075 115.134 6.73075H113.985C113.793 6.73075 113.793 6.73075 113.793 6.92306V12.1154C113.793 12.3077 113.793 12.5 113.602 12.5C113.602 12.5 113.41 12.6923 113.218 12.6923H100.958C100.575 12.6923 100.383 12.6923 100.383 12.5V12.3077V3.46152C100.383 3.26921 100.383 3.26921 100.192 3.26921H99.0422C98.8506 3.26921 98.8506 3.26921 98.8506 3.46152V12.3077C98.8506 12.5 98.8506 12.6923 98.659 12.6923C98.659 12.6923 98.4674 12.8846 98.2759 12.8846H93.6782C93.295 12.8846 92.7203 12.6923 92.5287 12.3077C92.1456 11.7308 91.954 11.3461 91.954 10.7692C91.954 10.3846 91.954 9.99998 92.1456 9.80767C92.3372 9.42306 92.5287 9.23075 92.9119 9.03844L93.4866 8.84614C93.4866 8.84614 93.6782 8.84614 93.6782 8.65383C93.6782 8.65383 93.6782 8.65383 93.6782 8.46152L93.1035 7.49998C93.1035 7.49998 93.1035 7.49998 92.9119 7.30767L92.3372 7.69229C91.7625 8.0769 91.3793 8.46152 90.9962 9.03844C90.613 9.61537 90.4215 10.1923 90.4215 10.9615C90.4215 11.9231 90.8046 12.6923 91.3793 13.4615C91.954 14.0384 92.7203 14.4231 93.6782 14.4231H98.2759C98.8506 14.4231 99.2337 14.2308 99.6169 13.8461C100 14.2308 100.575 14.4231 101.149 14.4231H113.027C113.602 14.4231 113.985 14.2308 114.368 13.8461C114.751 14.2308 115.326 14.4231 115.9 14.4231H118.391C118.966 14.4231 119.54 14.2308 119.923 13.8461C120.498 13.2692 120.69 12.8846 120.69 12.1154V6.92306L120.498 6.73075ZM6.13027 3.0769H5.17241C4.98084 3.0769 4.98084 3.0769 4.98084 3.26921V12.6923C4.98084 13.0769 4.78927 13.6538 4.40613 13.8461C4.02299 14.2308 3.63985 14.4231 3.25671 14.4231C2.68199 14.4231 2.29885 14.2308 1.91571 13.8461C1.53257 13.6538 1.53257 13.0769 1.53257 12.6923V9.23075C1.53257 9.03844 1.53257 9.03844 1.341 9.03844H0.191571C0 9.03844 0 9.03844 0 9.23075V12.6923C0 13.6538 0.383142 14.2308 0.957855 15C1.53257 15.5769 2.29885 15.9615 3.25671 15.9615C4.21456 15.9615 4.78927 15.5769 5.55556 15C6.13027 14.4231 6.51341 13.6538 6.51341 12.6923L6.13027 3.0769C6.32184 3.26921 6.32184 3.26921 6.13027 3.0769ZM120.307 15.9615H119.349C119.157 15.9615 119.157 15.9615 119.157 16.1538V17.3077C119.157 17.5 119.157 17.5 119.349 17.5H120.307C120.498 17.5 120.498 17.5 120.498 17.3077L120.307 15.9615Z" fill="#9D8C7C"/>
</g>
</svg>
