<svg width="28" height="27" viewBox="0 0 28 27" fill="none" xmlns="http://www.w3.org/2000/svg">
<path d="M13.9974 0.333008C6.6374 0.333008 0.664062 6.33301 0.664062 13.7463C0.664062 20.4397 5.54406 25.9863 11.9174 26.9997V17.6263H8.53073V13.7597H11.9174V10.773C11.9174 7.41301 13.9041 5.57301 16.9574 5.57301C18.4107 5.57301 19.9307 5.82634 19.9307 5.82634V9.13301H18.2641C16.6107 9.13301 16.0907 10.173 16.0907 11.2263V13.7597H19.7974L19.1974 17.6263H16.0907V26.9997C19.2335 26.4864 22.0907 24.8706 24.1504 22.442C26.2101 20.0134 27.3375 16.9307 27.3307 13.7463C27.3307 6.33301 21.3574 0.333008 13.9974 0.333008Z" fill="white"/>
</svg>
