<svg width="12" height="17" viewBox="0 0 12 17" xmlns="http://www.w3.org/2000/svg">
<path d="M6.0013 0C2.7763 0 0.167969 2.51953 0.167969 5.63473C0.167969 9.86078 6.0013 16.0992 6.0013 16.0992C6.0013 16.0992 11.8346 9.86078 11.8346 5.63473C11.8346 2.51953 9.2263 0 6.0013 0ZM1.83464 5.63473C1.83464 3.41304 3.7013 1.60992 6.0013 1.60992C8.3013 1.60992 10.168 3.41304 10.168 5.63473C10.168 7.95302 7.76797 11.4224 6.0013 13.5877C4.26797 11.4385 1.83464 7.92887 1.83464 5.63473Z"/>
<path d="M6.0013 7.56851C7.1519 7.56851 8.08464 6.66835 8.08464 5.55794C8.08464 4.44753 7.1519 3.54736 6.0013 3.54736C4.85071 3.54736 3.91797 4.44753 3.91797 5.55794C3.91797 6.66835 4.85071 7.56851 6.0013 7.56851Z" fill="#F9F5E9"/>
</svg>
