<svg width="26" height="27" viewBox="0 0 26 27" xmlns="http://www.w3.org/2000/svg">
<path d="M13.0011 0.666992C16.4411 0.666992 16.8678 0.680325 18.2278 0.746992C19.2757 0.768966 20.3124 0.967296 21.2944 1.33366C22.1344 1.65366 22.8411 2.09366 23.5478 2.80033C24.1878 3.42699 24.6811 4.18699 25.0144 5.04033C25.3211 5.84033 25.5344 6.77366 25.5878 8.10699C25.6639 9.8481 25.6906 11.591 25.6678 13.3337C25.6678 16.7737 25.6678 17.2003 25.5878 18.5603C25.5653 19.6082 25.367 20.6448 25.0011 21.627C24.6811 22.4803 24.1878 23.2403 23.5344 23.8803C22.9078 24.5203 22.1478 25.0137 21.2944 25.347C20.4944 25.6537 19.5611 25.867 18.2278 25.9203C16.4867 25.9965 14.7437 26.0232 13.0011 26.0003C9.5611 26.0003 9.13443 26.0003 7.77443 25.9203C6.72657 25.8978 5.68993 25.6995 4.70776 25.3337C3.85822 25.0159 3.08894 24.5152 2.45443 23.867C1.81498 23.2383 1.31919 22.4787 1.0011 21.6403C0.639282 20.6575 0.445464 19.6208 0.427763 18.5737C0.351568 16.8325 0.32489 15.0896 0.347763 13.347C0.347763 9.90699 0.361096 9.48032 0.427763 8.12033C0.443968 7.06869 0.637809 6.02735 1.0011 5.04033C1.3211 4.18699 1.81443 3.42699 2.46776 2.78699C3.0987 2.14079 3.86319 1.64023 4.70776 1.32033C5.69058 0.958512 6.72728 0.764693 7.77443 0.746992C9.13443 0.666992 9.5611 0.666992 13.0011 0.666992ZM13.0011 7.00033C11.3214 7.00033 9.71048 7.66759 8.52275 8.85532C7.33502 10.043 6.66776 11.654 6.66776 13.3337C6.66776 15.0134 7.33502 16.6243 8.52275 17.812C9.71048 18.9997 11.3214 19.667 13.0011 19.667C14.6808 19.667 16.2917 18.9997 17.4794 17.812C18.6672 16.6243 19.3344 15.0134 19.3344 13.3337C19.3344 11.654 18.6672 10.043 17.4794 8.85532C16.2917 7.66759 14.6808 7.00033 13.0011 7.00033ZM21.2411 6.68033C21.2411 6.25952 21.0739 5.85594 20.7764 5.55838C20.4788 5.26082 20.0752 5.09366 19.6544 5.09366C19.2336 5.09366 18.83 5.26082 18.5325 5.55838C18.2349 5.85594 18.0678 6.25952 18.0678 6.68033C18.0678 7.10114 18.2349 7.50471 18.5325 7.80227C18.83 8.09983 19.2336 8.26699 19.6544 8.26699C20.0752 8.26699 20.4788 8.09983 20.7764 7.80227C21.0739 7.50471 21.2411 7.10114 21.2411 6.68033ZM13.0011 9.53366C13.5001 9.53366 13.9943 9.63195 14.4553 9.82292C14.9163 10.0139 15.3352 10.2938 15.6881 10.6467C16.041 10.9995 16.3209 11.4184 16.5118 11.8795C16.7028 12.3405 16.8011 12.8346 16.8011 13.3337C16.8011 13.8327 16.7028 14.3268 16.5118 14.7879C16.3209 15.2489 16.041 15.6678 15.6881 16.0207C15.3352 16.3735 14.9163 16.6534 14.4553 16.8444C13.9943 17.0354 13.5001 17.1337 13.0011 17.1337C11.9933 17.1337 11.0267 16.7333 10.3141 16.0207C9.60145 15.308 9.2011 14.3415 9.2011 13.3337C9.2011 12.3258 9.60145 11.3593 10.3141 10.6467C11.0267 9.93401 11.9933 9.53366 13.0011 9.53366Z"/>
</svg>
