<svg width="210" height="75" viewBox="0 0 210 75"  xmlns="http://www.w3.org/2000/svg">
<path d="M114.952 16.125H115.731L116.74 2.63947C115.788 2.23562 114.822 1.87505 113.885 1.57216L114.966 16.125H114.952ZM111.014 16.125H111.779L112.889 1.29812C111.88 1.00966 110.87 0.778893 109.861 0.57697L111.014 16.1539V16.125ZM107.063 16.125H107.827L108.995 0.432739C107.971 0.274085 106.918 0.144278 105.865 0.0865854L107.063 16.125ZM99.1442 16.125H99.9087L101.106 0.101008C100.067 0.173124 99.0144 0.302932 97.976 0.476008L99.1442 16.125ZM83.3365 16.125H84.101L84.8798 5.65389C84.1154 6.1587 83.3798 6.70678 82.6731 7.25486L83.3365 16.125ZM91.2404 16.125H92.0048L93.0865 1.67312C92.1058 1.99043 91.1538 2.35101 90.2452 2.74043L91.2548 16.125H91.2404ZM87.2885 16.125H88.0529L89.0048 3.30293C88.1394 3.73562 87.274 4.18274 86.4375 4.68755L87.2885 16.125ZM95.1923 16.125H95.9567L97.1106 0.634662C96.1154 0.822162 95.0914 1.06735 94.0817 1.35582L95.1923 16.1395V16.125ZM118.933 16.125H119.697L120.562 4.52889C119.726 4.03851 118.846 3.59139 117.966 3.17312L118.933 16.125ZM101.913 0.0433161L103.111 16.125H103.875L105.072 0.0288931C103.904 4.69023e-05 103.125 4.69042e-05 101.899 0.0433161H101.913ZM79.3702 16.125H80.1346L80.6827 8.95678C80.1058 9.47601 79.5288 10.0529 78.9663 10.6443L79.3702 16.125ZM126.837 16.125H127.601L128.034 10.3558C127.486 9.80774 126.894 9.23082 126.274 8.68274L126.837 16.125ZM122.885 16.125H123.635L124.313 7.03851C123.606 6.50486 122.87 5.9712 122.077 5.45197L122.87 16.125H122.885ZM76.4423 16.125L76.5433 13.4568C75.9191 14.3239 75.3273 15.214 74.7692 16.125H76.4423ZM130.558 16.125H132.49C131.899 15.1731 131.077 13.9472 130.399 13.0529L130.543 16.125H130.558ZM14.9712 33.5914C14.9712 34.5 14.6394 35.2212 13.9904 35.7116C13.3702 36.1875 12.4615 36.4327 11.3077 36.4327H3.04327V30.4327H11.3077C12.4615 30.4327 13.3702 30.6779 13.9904 31.1539C14.6394 31.6443 14.9712 32.3654 14.9712 33.2741V33.5914ZM16.2981 29.2645C14.8916 28.2016 13.1546 27.6702 11.3942 27.7645H0V45.8943H3.02885V39.0866H11.3942C13.4567 39.0866 15.1154 38.5818 16.2981 37.601C16.8852 37.1102 17.3508 36.4903 17.6586 35.7898C17.9663 35.0892 18.1079 34.3269 18.0721 33.5625V33.2741C18.0721 31.5433 17.4952 30.2308 16.2981 29.2356V29.2645ZM27.649 38.9568L31.5144 30.476L35.3798 38.9424H27.649V38.9568ZM33.3029 27.7645H29.6971L21.274 45.6635V45.8943H24.4615L26.3942 41.625H36.6202L38.5529 45.8943H41.7404V45.6635L33.3029 27.7645ZM51.5769 43.226V27.7645H48.5481V45.8943H64.7596V43.226H51.5769ZM74.3077 43.226V27.7645H71.2788V45.8943H87.4904V43.226H74.3077ZM98.3798 38.9568L102.245 30.476L106.111 38.9424H98.3798V38.9568ZM104.048 27.7645H100.442L92.0192 45.6635V45.8943H95.2067L97.1394 41.625H107.365L109.284 45.8943H112.5V45.6635L104.062 27.7645H104.048ZM135.144 37.0818C135.144 39.1443 134.538 40.6875 133.356 41.7116C132.188 42.7212 130.399 43.226 128.019 43.226H122.322V30.4327H128.005C132.736 30.4327 135.13 32.5241 135.13 36.6347V37.0818H135.144ZM135.663 30.0289C133.933 28.5289 131.38 27.7645 128.019 27.7645H119.279V45.8943H128.034C131.38 45.8943 133.947 45.1299 135.663 43.6443C137.365 42.1587 138.231 39.9375 138.231 37.0241V36.6635C138.231 33.75 137.365 31.5289 135.663 30.0289ZM146.207 45.8943H149.25V27.7645H146.221V45.8943H146.207ZM172.962 27.7645V38.0049C172.962 39.6924 172.442 41.0337 171.404 42C170.212 43.019 168.671 43.536 167.106 43.4424C165.545 43.5353 164.009 43.0181 162.822 42C162.297 41.4778 161.889 40.8507 161.623 40.1598C161.357 39.4689 161.24 38.7297 161.279 37.9904V27.7645H158.25V37.9327C158.25 39.5914 158.611 41.0625 159.346 42.3029C160.067 43.5433 161.106 44.5097 162.433 45.1875C163.096 45.5481 163.832 45.8077 164.596 45.9664C167.015 46.489 169.538 46.2211 171.793 45.202C173.085 44.5544 174.161 43.5477 174.894 42.3029C175.63 41.0481 176.005 39.5914 176.005 37.9327V27.7645H172.962ZM203.784 27.7645L196.428 42.7212L189.058 27.7645H184.471V45.8943H187.5V31.0385L194.769 45.8943H198.101L205.37 31.0962V45.8943H208.385V27.7645H203.798H203.784Z"/>
<path d="M68.2227 69.2308V59.7837H71.4102C72.1457 59.7837 72.7515 59.9279 73.2275 60.1731C73.7034 60.4183 74.0496 60.75 74.2803 61.1827C74.5111 61.6298 74.6121 62.1347 74.6121 62.6827C74.6121 63.2452 74.5111 63.7356 74.2803 64.1683C74.0496 64.601 73.7034 64.9327 73.2275 65.1779C72.7659 65.4231 72.1602 65.5385 71.4246 65.5385H68.8428V64.5145H71.3957C71.9005 64.5145 72.3044 64.4423 72.6073 64.2837C72.9246 64.1395 73.1409 63.9375 73.2852 63.6635C73.4294 63.3895 73.4871 63.0577 73.4871 62.6827C73.4871 62.3077 73.4294 61.976 73.2852 61.6875C73.1379 61.4017 72.8993 61.1732 72.6073 61.0385C72.2174 60.8661 71.7927 60.7871 71.3669 60.8077H69.3765V69.2308H68.2227ZM72.665 64.9904L74.9871 69.2308H73.6602L71.3669 64.9904H72.665ZM81.7082 69.2308V59.7837H87.4198V60.7933H82.8621V63.9952H87.1169V65.0048H82.8621V68.2212H87.4775V69.2308H81.7082ZM95.0496 69.2308H93.8525L97.314 59.7837H98.4967L101.973 69.2308H100.79L97.963 61.2837H97.8909L95.0496 69.2308ZM95.4823 65.5385H100.328V66.5481H95.4823V65.5385ZM108.651 69.2308V59.7837H109.79V68.2212H114.175V69.2308H108.651ZM119.367 60.8077V59.7981H126.434V60.8077H123.477V69.2308H122.324V60.8077H119.367ZM132.593 59.7981H133.891L136.516 64.1971H136.631L139.256 59.7837H140.554L137.151 65.3366V69.2308H135.997V65.3366L132.593 59.7837V59.7981Z"/>
</svg>
