<svg width="238" height="60" viewBox="0 0 238 60" xmlns="http://www.w3.org/2000/svg">
<g clip-path="url(#clip0_620_237)">
<path d="M46.4281 16.392H40.8659V43.608H46.4281V16.392ZM32.7371 16.392H27.1748V43.608H32.7371V16.392ZM19.046 16.392H13.4838V43.608H19.046V16.392ZM9.83394 5.5704H50.078V0H9.83394V5.5704ZM5.56222 50.1516V9.8484H0V50.1516H5.56222ZM54.3497 9.8484V50.1516H59.9119V9.8484H54.3497ZM50.078 54.4296H9.83394V60H50.078V54.4296ZM95.7548 43.6068H100.968V16.3968H94.3085L86.6206 36.9384L79.0478 16.3968H72.2741V43.608H77.3738V25.1616L84.338 43.608H88.8278L95.7536 25.08V43.608L95.7548 43.6068ZM106.299 43.6068H126.31V38.7672H111.965V32.0592H125.096V27.1824H111.965V21.24H126.007V16.3968H106.294L106.299 43.6068ZM147.968 43.6068H154.208L148.386 32.136C149.77 31.4964 150.935 30.4625 151.735 29.1636C152.463 27.7933 152.817 26.2553 152.762 24.7044C152.763 23.6481 152.588 22.599 152.246 21.6C151.894 20.5835 151.292 19.6725 150.495 18.9516C149.527 18.1085 148.392 17.4789 147.165 17.1036C145.476 16.5921 143.716 16.3543 141.952 16.3992H131.407V43.608H137.001V33.3936H142.899L147.968 43.6068ZM137.004 28.668V21.084H141.797C142.644 21.0646 143.489 21.1541 144.313 21.3504C144.893 21.4899 145.438 21.7495 145.912 22.1124C146.3 22.4194 146.596 22.8281 146.767 23.2932C146.935 23.7702 147.019 24.273 147.014 24.7788C147.023 25.3279 146.945 25.875 146.784 26.4C146.632 26.8708 146.356 27.2919 145.985 27.6192C145.55 27.991 145.036 28.2583 144.482 28.4004C143.718 28.5954 142.931 28.685 142.142 28.6668H137.005L137.004 28.668ZM177.532 43.608H183.583L172.813 16.3968H167.062L156.297 43.608H162.158L164.441 37.3584H175.211L177.532 43.608ZM169.807 22.5708L173.574 32.67H166.115L169.807 22.5708ZM206.833 43.608H212.884L202.114 16.3968H196.362L185.599 43.608H191.459L193.743 37.3584H204.513L206.833 43.608ZM199.108 22.5708L202.875 32.67H195.416L199.108 22.5708ZM237.542 22.1892C237.285 21.3884 236.923 20.6257 236.464 19.9212C235.916 19.0929 235.212 18.3806 234.39 17.8248C233.374 17.1434 232.257 16.6289 231.079 16.3008C228.008 15.5194 224.791 15.5128 221.717 16.2816C220.452 16.6126 219.259 17.1744 218.197 17.9388C217.249 18.6285 216.474 19.5283 215.932 20.568C215.39 21.6356 215.116 22.8193 215.133 24.0168C215.065 25.0281 215.238 26.0411 215.639 26.9721C216.039 27.9031 216.654 28.7255 217.435 29.3712C219.467 30.7746 221.812 31.658 224.265 31.944L228.07 32.6304C229.229 32.7511 230.328 33.2101 231.229 33.9504C231.504 34.2142 231.723 34.5307 231.873 34.8812C232.024 35.2317 232.102 35.609 232.103 35.9904C232.118 36.487 232.013 36.9797 231.798 37.4274C231.582 37.875 231.263 38.2645 230.867 38.5632C229.629 39.3204 228.182 39.6611 226.738 39.5352C225.196 39.5421 223.671 39.2172 222.266 38.5824C220.722 37.8326 219.403 36.6891 218.441 35.2668L214.485 39C215.755 40.712 217.437 42.0743 219.375 42.96C221.63 43.9105 224.064 44.3652 226.51 44.2932C228.216 44.3243 229.917 44.0928 231.552 43.6068C232.856 43.2183 234.071 42.5774 235.129 41.7204C236.052 40.9576 236.787 39.9928 237.279 38.9004C237.766 37.7896 238.011 36.5878 237.998 35.3748C238.025 34.4356 237.852 33.5014 237.491 32.6341C237.13 31.7668 236.589 30.9863 235.904 30.3444C233.982 28.7899 231.66 27.8121 229.206 27.5244L225.029 26.76C223.868 26.6374 222.752 26.2387 221.776 25.5972C221.464 25.3122 221.222 24.9597 221.067 24.5667C220.912 24.1737 220.849 23.7504 220.882 23.3292C220.877 22.8997 220.988 22.4769 221.202 22.1048C221.416 21.7326 221.726 21.4249 222.099 21.2136C222.62 20.9125 223.187 20.7 223.777 20.5848C224.616 20.418 225.471 20.3415 226.327 20.3568C227.728 20.2824 229.122 20.6131 230.341 21.3096C231.41 22.0593 232.237 23.1059 232.719 24.3204L237.542 22.1892Z" />
</g>
<defs>
<clipPath id="clip0_620_237">
<rect width="238" height="60" />
</clipPath>
</defs>
</svg>
