<svg width="858" height="191" viewBox="0 0 858 191" fill="none" xmlns="http://www.w3.org/2000/svg">
<path d="M473.003 66.4356H476.208L480.362 10.875C476.445 9.21118 472.469 7.7256 468.611 6.47772L473.062 66.4356H473.003ZM456.801 66.4356H459.946L464.516 5.34868C460.362 4.16022 456.208 3.20945 452.053 2.37753L456.801 66.5544V66.4356ZM440.54 66.4356H443.685L448.492 1.7833C444.279 1.12964 439.946 0.594834 435.614 0.357142L440.54 66.4356ZM407.958 66.4356H411.103L416.029 0.416565C411.756 0.71368 407.424 1.24849 403.15 1.96157L407.958 66.4356ZM342.912 66.4356H346.058L349.263 23.2944C346.117 25.3743 343.09 27.6323 340.182 29.8904L342.912 66.4356ZM375.435 66.4356H378.58L383.032 6.89368C378.996 8.20099 375.079 9.68656 371.34 11.291L375.494 66.4356H375.435ZM359.174 66.4356H362.319L366.236 13.6085C362.675 15.3912 359.114 17.2333 355.672 19.3131L359.174 66.4356ZM391.696 66.4356H394.842L399.59 2.61522C395.495 3.38772 391.281 4.39791 387.127 5.58637L391.696 66.495V66.4356ZM489.383 66.4356H492.528L496.089 18.6594C492.647 16.6391 489.027 14.7969 485.407 13.0737L489.383 66.4356ZM419.353 0.178873L424.278 66.4356H427.424L432.35 0.11945C427.542 0.000603396 424.338 0.000603404 419.293 0.178873H419.353ZM326.592 66.4356H329.737L331.992 36.9023C329.618 39.0416 327.244 41.4185 324.93 43.8548L326.592 66.4356ZM521.906 66.4356H525.051L526.832 42.6664C524.576 40.4083 522.143 38.0314 519.591 35.7733L521.906 66.4356ZM505.644 66.4356H508.73L511.52 28.9991C508.612 26.8004 505.585 24.6018 502.321 22.4625L505.585 66.4356H505.644ZM314.544 66.4356L314.959 55.4423C312.391 59.0149 309.956 62.6819 307.66 66.4356H314.544ZM537.217 66.4356H545.17C542.737 62.5137 539.354 57.4627 536.565 53.7785L537.158 66.4356H537.217ZM61.6032 138.397C61.6032 142.141 60.2381 145.112 57.5675 147.132C55.0155 149.093 51.2766 150.103 46.5288 150.103H12.5224V125.383H46.5288C51.2766 125.383 55.0155 126.393 57.5675 128.354C60.2381 130.375 61.6032 133.346 61.6032 137.09V138.397ZM67.0632 120.57C61.2759 116.191 54.1285 114.002 46.8849 114.39H0V189.085H12.4631V161.037H46.8849C55.3716 161.037 62.1966 158.957 67.0632 154.917C69.4789 152.895 71.3949 150.341 72.6612 147.454C73.9276 144.568 74.51 141.427 74.363 138.278V137.09C74.363 129.959 71.989 124.551 67.0632 120.451V120.57ZM113.77 160.502L129.675 125.562L145.58 160.443H113.77V160.502ZM137.034 114.39H122.197L87.5382 188.134V189.085H100.654L108.607 171.496H150.684L158.637 189.085H171.753V188.134L137.034 114.39ZM212.228 178.092V114.39H199.765V189.085H266.472V178.092H212.228ZM305.761 178.092V114.39H293.297V189.085H360.005V178.092H305.761ZM404.812 160.502L420.717 125.562L436.623 160.443H404.812V160.502ZM428.136 114.39H413.299L378.64 188.134V189.085H391.756L399.708 171.496H441.786L449.679 189.085H462.914V188.134L428.195 114.39H428.136ZM556.09 152.777C556.09 161.275 553.597 167.633 548.731 171.852C543.924 176.012 536.565 178.092 526.772 178.092H503.33V125.383H526.713C546.179 125.383 556.031 134 556.031 150.935V152.777H556.09ZM558.227 123.719C551.105 117.539 540.6 114.39 526.772 114.39H490.807V189.085H526.832C540.6 189.085 551.164 185.935 558.227 179.815C565.23 173.694 568.791 164.543 568.791 152.54V151.054C568.791 139.051 565.23 129.899 558.227 123.719ZM601.61 189.085H614.132V114.39H601.669V189.085H601.61ZM711.7 114.39V156.58C711.7 163.533 709.564 169.059 705.291 173.041C700.386 177.239 694.046 179.369 687.605 178.983C681.182 179.366 674.862 177.235 669.979 173.041C667.82 170.889 666.138 168.305 665.044 165.459C663.95 162.612 663.467 159.567 663.629 156.521V114.39H651.165V156.283C651.165 163.117 652.649 169.178 655.676 174.288C658.643 179.399 662.916 183.38 668.376 186.173C671.106 187.659 674.133 188.728 677.279 189.382C687.232 191.535 697.613 190.431 706.893 186.233C712.206 183.565 716.637 179.417 719.653 174.288C722.68 169.119 724.223 163.117 724.223 156.283V114.39H711.7ZM838.527 114.39L808.259 176.012L777.933 114.39H759.06V189.085H771.523V127.879L801.434 189.085H815.144L845.055 128.117V189.085H857.459V114.39H838.586H838.527Z" fill="#9D8C7C" opacity="0.5"/>
</svg>
