<svg width="201" height="73" viewBox="0 0 201 73" xmlns="http://www.w3.org/2000/svg">
<path d="M60.7723 17.5882H56.7601C56.7601 16.265 56.5169 15.3552 56.0306 14.859C55.4531 14.3352 54.4501 13.9768 52.9911 13.8114C52.14 13.7287 50.7723 13.6736 48.827 13.6736C45.909 13.6736 43.9637 13.7287 43.0215 13.839C41.9273 13.9493 41.1066 14.1147 40.5291 14.3628C39.9516 14.6109 39.5261 14.9417 39.2221 15.4104C38.9182 15.9066 38.7662 16.5682 38.7662 17.3677C38.7662 18.3877 38.979 19.1872 39.4349 19.7661C39.9516 20.4277 41.1978 20.8413 43.2039 20.9791C43.751 21.0342 45.5747 21.0894 48.7054 21.1721C52.0185 21.2548 54.2981 21.3651 55.5443 21.5029C56.8513 21.6683 57.9151 21.9164 58.675 22.2472C59.4653 22.5781 60.1036 23.0467 60.5595 23.6532C61.137 24.37 61.441 25.5278 61.441 27.0992C61.441 29.3598 60.8331 30.876 59.5869 31.6755C58.371 32.5025 56.5473 32.9712 54.1461 33.1366C52.3224 33.2469 50.0124 33.3296 47.1856 33.3296C43.5382 33.3296 41.0762 33.1917 39.7692 32.9712C36.8209 32.4198 35.1188 31.0966 34.6932 28.9463C34.5717 28.5052 34.5109 27.6781 34.4805 26.5478H38.4926V27.0165C38.523 28.1192 38.675 28.9463 38.9486 29.47C39.2221 30.0214 39.7692 30.4349 40.4987 30.7106C41.1674 30.9863 42.2008 31.1241 43.6294 31.1793C44.9364 31.1793 46.4562 31.2068 48.2191 31.2068C50.8027 31.2068 52.6872 31.1517 53.8118 30.9863C54.9668 30.8484 55.8179 30.6003 56.3954 30.2144C57.0944 29.7457 57.4592 28.5879 57.4592 26.8235C57.4592 25.9138 57.2464 25.2246 56.9121 24.7835C56.3954 24.1494 55.2403 23.7359 53.447 23.5981C52.9303 23.5705 51.0458 23.4878 47.7327 23.3775C44.6324 23.2948 42.7479 23.2121 42.0793 23.157C39.4653 22.9364 37.5808 22.3851 36.3346 21.4202C35.3011 20.6207 34.7844 19.3526 34.7844 17.671C34.7844 15.2725 35.6659 13.6736 37.4288 12.8741C38.7966 12.2676 40.6203 11.9092 42.8999 11.7714C44.4197 11.6887 46.1522 11.6611 48.0063 11.6611C51.8057 11.6611 54.4197 11.799 55.9698 12.1022C58.6142 12.5984 60.1644 13.7287 60.6203 15.4379C60.6811 15.9066 60.7723 16.6234 60.7723 17.5882Z" />
<path d="M68.5825 13.8945V21.0898H86.698V23.1022H68.5825V31.0142H87.4882V33.0543H64.5703V11.8545H87.4882V13.8945H68.5825Z"/>
<path d="M94.6606 11.8267V30.821H113.019V33.054H90.6484V11.8267H94.6606Z"/>
<path d="M120.196 13.8945V21.0898H138.311V23.1022H120.196V31.0142H139.102V33.0543H116.184V11.8545H139.102V13.8945H120.196Z"/>
<path d="M167.065 25.9689H171.077C171.077 26.4927 171.077 26.851 171.077 27.0165C171.077 28.8635 170.743 30.2143 169.983 31.0414C169.01 32.1441 167.126 32.8333 164.36 33.0814C163.083 33.1917 160.044 33.2744 155.241 33.2744C152.354 33.2744 150.105 33.109 148.524 32.8057C145.819 32.3095 144.025 31.1517 143.144 29.3597C142.567 28.1467 142.293 25.8862 142.293 22.5229C142.293 19.6834 142.323 17.9466 142.415 17.3125C142.597 15.879 143.205 14.7763 144.238 13.8941C145.272 13.0671 146.822 12.4606 148.858 12.0746C150.591 11.7438 154.056 11.606 159.284 11.606C162.141 11.606 164.177 11.7162 165.424 11.9368C168.159 12.4606 169.801 13.6184 170.317 15.4103C170.469 15.8514 170.56 16.8163 170.652 18.305H166.639L166.609 17.6433C166.609 16.6509 166.457 15.9066 166.184 15.3828C165.91 14.859 165.484 14.473 164.877 14.2249C163.965 13.839 162.019 13.646 159.041 13.646C155.697 13.646 153.114 13.7287 151.32 13.839C150.165 13.9217 149.223 14.1146 148.554 14.4179C147.886 14.7487 147.369 15.1898 147.065 15.8239C146.7 16.4579 146.518 17.5055 146.518 18.9666C146.518 21.5304 146.579 23.791 146.67 25.7483C146.791 28.257 147.551 29.8284 148.889 30.4349C149.801 30.8484 151.26 31.0689 153.266 31.1241C154.299 31.1517 155.393 31.1792 156.548 31.1792C159.375 31.1792 161.472 31.1241 162.901 30.9862C164.329 30.8484 165.332 30.6279 165.849 30.3246C166.7 29.8284 167.095 28.8359 167.095 27.2921C167.095 26.9613 167.095 26.5202 167.065 25.9689Z"/>
<path d="M188.647 14.0875V33.0543H184.634V14.0599H173.023V11.8545H200.197V14.0875H188.647Z"/>
<path d="M48.6759 50.6149H63.9646C64.0254 51.1939 64.0862 51.8279 64.0862 52.5447C64.0862 54.1988 64.0558 55.3842 63.9646 56.101C63.843 57.3691 63.3871 58.3891 62.6576 59.1334C61.8977 59.9329 60.7731 60.4843 59.2838 60.8151C57.7336 61.201 54.4509 61.394 49.4661 61.394C46.0011 61.394 43.4175 61.2837 41.7458 61.0632C40.1044 60.8427 38.6759 60.4291 37.5512 59.7951C35.8187 58.8578 34.8461 57.4242 34.6637 55.522C34.5725 54.7501 34.5421 53.7853 34.5421 52.5998C34.5421 52.4069 34.5421 51.635 34.5117 50.2566V49.4019C34.5117 47.803 34.5725 46.59 34.7549 45.763C35.2716 42.8683 37.0345 41.0764 39.9828 40.3321C41.2594 40.0288 42.9312 39.8359 44.998 39.7807C46.2138 39.7256 47.8552 39.7256 49.8613 39.7256C52.7488 39.7256 54.7853 39.7532 55.9707 39.8083C57.1561 39.8634 58.1591 39.9737 59.0406 40.1667C62.0497 40.7732 63.6911 42.0964 63.9646 44.1089C63.995 44.4948 63.995 45.1289 63.995 46.0938H60.0436C60.0132 45.1565 59.9828 44.4948 59.8917 44.1365L59.3142 43.0337C58.7974 42.3997 57.5208 42.0413 55.4844 41.9035C54.1774 41.8208 51.8673 41.7656 48.5543 41.7656C45.6363 41.7656 43.4479 41.8759 42.1105 42.124C40.4996 42.4272 39.4661 43.1991 39.0102 44.4948C38.767 45.1565 38.6151 47.1414 38.5847 50.4495C38.6151 53.0685 38.6455 54.6123 38.7062 55.0809C38.7974 56.2388 39.1014 57.1485 39.6789 57.755C40.226 58.3615 41.1075 58.7751 42.2929 58.968C43.7822 59.2161 46.6698 59.354 50.9555 59.354C53.3567 59.354 55.1804 59.2713 56.3962 59.1059C57.612 58.9405 58.4935 58.6648 58.9798 58.3064C59.7397 57.7275 60.1348 56.2939 60.1348 54.0334C60.1348 53.7301 60.1044 53.289 60.074 52.6825H48.7366V50.6149"/>
<path d="M68.6445 61.1736V39.9463H85.6354C88.7965 39.9463 91.1673 40.2495 92.7783 40.8836C94.1765 41.435 95.1187 42.2344 95.605 43.3372C95.9394 43.9988 96.0913 44.9085 96.0913 46.0388C96.0913 48.3545 95.3923 49.8983 93.9941 50.6427C93.1126 51.1113 91.7752 51.4146 89.9211 51.6075V51.6351C91.6233 51.6902 92.991 52.0486 93.9941 52.7103C94.7844 53.2341 95.3011 53.9233 95.453 54.6952L95.5746 55.7427V61.1736H91.5929V56.3217C91.5929 55.6325 91.4713 55.0535 91.2889 54.5849C90.5594 53.1789 88.4014 52.5173 84.8451 52.6H72.6567V61.1736H68.6445ZM72.6263 50.5324H84.2676C86.8512 50.5324 88.7661 50.3394 89.9211 49.8983C91.3497 49.3745 92.0792 48.3545 92.0792 46.8107C92.0792 45.901 92.0488 45.1566 91.9576 44.5501C91.7448 43.282 90.7722 42.4825 88.9789 42.2069C88.0366 42.069 86.912 41.9863 85.6658 41.9863H72.6263V50.5324Z"/>
<path d="M116.239 39.7256C118.732 39.7256 120.616 39.7807 121.984 39.8634C123.352 39.9737 124.537 40.1391 125.54 40.4148C128.458 41.1591 130.221 42.8408 130.799 45.4873C130.951 46.2316 131.042 47.5273 131.042 49.4019C131.042 52.7652 130.951 54.888 130.738 55.7426C130.464 57.121 129.917 58.1686 129.188 58.8853C128.458 59.6297 127.394 60.2086 125.935 60.5945C124.446 61.0081 122.531 61.2562 120.221 61.3389C119.005 61.394 117.546 61.394 115.814 61.394C112.866 61.394 110.708 61.3389 109.37 61.2286C108.033 61.1459 106.787 60.9254 105.692 60.5945C103.352 59.9329 101.863 58.7199 101.255 56.9556C100.829 55.7977 100.616 54.1161 100.586 51.8831C100.586 51.0285 100.586 50.036 100.586 48.9333C100.586 47.3895 100.677 46.2316 100.829 45.4597C101.133 44.1089 101.711 43.0337 102.531 42.2067C103.382 41.4072 104.537 40.8007 106.057 40.4148C107.394 40.084 109.097 39.891 111.194 39.8083C112.622 39.7532 114.264 39.7256 116.239 39.7256ZM115.388 41.7932C113.139 41.7932 111.528 41.8207 110.495 41.8759C109.492 41.931 108.61 42.0689 107.881 42.2343C106.513 42.5651 105.571 43.337 105.115 44.4948C104.811 45.2667 104.628 46.1489 104.628 47.1414V50.5322C104.628 53.2063 104.689 54.7501 104.75 55.2464C104.932 56.3215 105.236 57.121 105.723 57.6723C106.209 58.2237 106.908 58.6372 107.85 58.8578C108.701 59.0783 109.917 59.2161 111.467 59.2713C112.622 59.2988 114.051 59.3264 115.814 59.3264C119.522 59.3264 121.923 59.2161 122.987 59.0507C123.99 58.8853 124.78 58.5821 125.328 58.2237C125.875 57.8653 126.3 57.314 126.574 56.6248C126.878 55.8528 127.03 54.9707 127.03 53.9507L126.999 50.5322C126.999 47.9133 126.969 46.3143 126.878 45.8181C126.726 44.743 126.391 43.9435 125.905 43.3921C125.419 42.8408 124.72 42.4548 123.747 42.2067C122.866 41.9862 121.65 41.8483 120.069 41.7932C118.945 41.7932 117.364 41.7932 115.388 41.7932Z"/>
<path d="M161.044 39.9458H165.057V54.8049C165.057 56.5969 164.722 57.865 164.084 58.6645C163.142 59.8499 161.379 60.6494 158.856 61.0353C157.458 61.2558 154.874 61.3661 151.166 61.3661C148.522 61.3661 146.576 61.3386 145.33 61.2558C144.084 61.2007 143.02 61.0629 142.078 60.8423C140.011 60.4012 138.582 59.6845 137.792 58.7196C137.123 57.8926 136.789 56.5969 136.789 54.8049V39.9458H140.771V54.8049C140.771 56.3763 141.014 57.4239 141.531 57.9201C142.169 58.5542 143.354 58.9677 145.117 59.1607C146.09 59.271 147.883 59.3537 150.436 59.3537C154.266 59.3537 156.85 59.2158 158.218 58.9401C159.494 58.6645 160.315 58.0855 160.71 57.0931C160.923 56.5969 161.014 55.8525 161.014 54.8049V39.9458"/>
<path d="M170.832 61.1736V39.9463H185.786C187.458 39.9463 188.644 39.9463 189.373 39.9739C191.136 40.0566 192.534 40.2495 193.568 40.5252C194.601 40.8285 195.422 41.2971 196.06 41.9312C197.063 42.9236 197.58 44.4399 197.58 46.4523C197.58 48.2443 197.185 49.5951 196.394 50.4773C195.391 51.6075 193.841 52.3243 191.683 52.6C190.954 52.7103 188.796 52.7654 185.148 52.793H174.844V61.1185H170.832M174.844 50.7805H184.388C187.549 50.7805 189.677 50.6702 190.771 50.3946C192.048 50.1189 192.868 49.5399 193.294 48.6578C193.507 48.2443 193.598 47.6102 193.598 46.7556C193.598 45.2393 193.446 44.1642 193.081 43.5301C192.686 42.7858 191.744 42.3171 190.315 42.1242C189.738 42.0415 188.218 42.0139 185.695 41.9863H174.875V50.7805H174.844Z"/>
<path d="M10.1938 69.3885C17.9142 61.6419 9.64672 51.0283 9.64672 51.0283C2.10872 41.6276 0.771338 35.2042 0.771338 35.2042C-3.05845 21.7511 13.0814 6.31299 13.0814 6.31299C6.81997 14.3628 10.7409 29.415 10.7409 29.415C11.5616 34.1015 19.13 44.2465 19.13 44.2465C26.2121 53.5921 18.2485 63.9025 18.2485 63.9025C18.2485 63.9025 14.054 68.8096 6.91116 72.8345C6.91116 72.8345 9.13 70.5739 10.1938 69.3885Z"/>
<path d="M20.4682 0C20.4682 0 14.9059 6.47847 18.5533 15.9343C18.5533 15.9343 21.0457 21.2273 25.7266 27.2372C25.7266 27.2372 33.9029 37.5752 28.8573 48.6575C28.8573 48.6575 23.4469 63.2409 6.69922 73C6.69922 73 22.6871 60.8425 22.2311 47.7753C22.2311 47.7753 22.6567 40.773 12.3223 29.0291C12.2919 29.0291 -1.44668 14.3353 20.4682 0Z"/>
</svg>
