<svg width="208" height="51" viewBox="0 0 208 51" xmlns="http://www.w3.org/2000/svg">
<path d="M25.3517 27.314C24.9 26.4181 23.9968 25.5221 22.6419 24.6262C21.287 23.7303 19.4805 22.8343 16.319 21.4905C12.706 20.1466 10.4478 18.8027 9.54457 17.9068C8.64131 17.0108 8.18968 16.1149 8.18968 15.219C8.18968 13.8751 8.64131 12.9792 9.9962 12.0833C11.3511 11.1873 12.706 10.7394 14.9641 10.7394C16.7707 10.7394 18.5772 11.1873 19.9321 12.0833C21.287 12.9792 22.6419 14.3231 23.0935 16.1149C23.0935 16.1149 23.0935 16.5629 23.5451 16.5629C23.5451 16.5629 23.9968 16.5629 23.9968 16.1149L24.4484 11.1873C23.5451 10.7394 22.1902 9.84346 20.8353 9.84346C19.4805 9.3955 18.1256 9.39551 15.8674 9.39551C12.706 9.39551 9.9962 10.2914 7.73805 11.6353C5.93152 12.9792 4.57663 14.771 4.57663 17.0108C4.57663 18.3547 5.02826 19.2506 5.47989 20.1466C6.38315 21.0425 7.28642 22.3864 9.09294 23.2823C9.9962 23.7303 11.8027 24.6262 14.9641 25.9701C18.1256 27.314 19.9321 28.6579 21.287 29.5538C22.1902 30.4497 22.6419 31.3456 22.6419 32.6895C22.6419 33.5854 22.1902 34.4814 21.7386 35.3773C21.287 36.2732 20.3837 36.7212 19.0288 37.6171C17.6739 38.065 16.7707 38.513 15.4158 38.513C13.1576 38.513 11.3511 37.6171 9.54457 36.2732C7.73805 34.9293 6.83479 33.5854 6.38315 31.7936V31.3456C5.93152 30.4497 5.47989 30.4497 5.02826 30.4497C4.57663 30.4497 4.57663 30.8977 4.57663 30.8977L4.125 36.7212C4.125 37.1691 4.125 37.1691 4.57663 37.6171C5.02826 38.065 5.47989 38.0651 6.83479 38.513C9.09294 38.961 11.3511 39.4089 14.0609 39.4089C16.7707 39.4089 19.0288 38.961 20.8353 38.513C22.6419 37.6171 23.9968 36.7212 24.9 35.3773C25.8033 34.0334 26.2549 32.6895 26.2549 30.8977C26.2549 29.1058 25.8033 28.2099 25.3517 27.314Z" />
<path d="M103.034 21.9384C106.647 20.5945 108.906 18.8027 108.906 16.1149C108.906 12.5312 103.486 9.39551 97.1631 9.39551C94.905 9.39551 92.1952 9.39551 91.2919 9.39551C88.5821 9.39551 86.7756 9.3955 84.9691 9.84346H83.1626C82.7109 9.84346 82.7109 9.84346 82.7109 10.2914C82.7109 10.7394 82.7109 10.7394 83.1626 10.7394L86.324 11.1873C87.2273 11.1873 87.2272 12.0833 87.2272 12.5312V35.3773C87.2272 36.2732 86.7756 36.7212 85.8724 36.7212L83.1626 37.1691C82.7109 37.1691 82.7109 37.6171 82.7109 37.6171C82.7109 38.065 83.1626 38.065 83.6142 38.065H99.4213C106.647 38.065 112.519 34.0334 112.519 29.5538C112.067 26.4181 108.002 23.2823 103.034 21.9384ZM96.2599 10.7394C98.0664 10.7394 99.8729 11.1874 101.228 11.6353C101.679 11.6353 106.647 13.8751 103.486 19.2507C103.486 19.2507 101.679 22.3864 95.3566 22.3864C94.4533 22.3864 93.0985 22.3864 92.1952 21.9384V11.1873C92.1952 11.1873 94.0017 10.7394 96.2599 10.7394ZM105.744 34.4814C105.744 34.4814 103.486 37.1691 98.0664 37.1691C98.0664 37.1691 98.0664 37.1691 97.6148 37.1691C96.2599 37.1691 91.7436 36.7212 91.7436 34.0334V23.7303C92.1952 23.7303 94.4533 23.2823 96.2599 23.2823C99.4213 23.2823 102.131 23.7303 103.938 24.6262C103.938 24.6262 105.744 25.5221 106.647 27.314C108.002 30.0018 107.551 32.2416 105.744 34.4814Z"/>
<path d="M159.936 38.0653L157.226 37.6174C156.322 37.6174 155.871 36.7215 155.871 36.2735V12.5315C155.871 11.6356 156.322 11.1876 157.226 11.1876L159.936 10.7397C160.387 10.7397 160.387 10.2917 160.387 10.2917C160.387 10.2917 159.935 9.84375 159.484 9.84375H155.871H151.355H147.29C146.838 9.84375 146.838 9.84374 146.387 10.2917C145.935 10.7397 146.387 10.7397 146.838 10.7397L149.548 11.1876C150.451 11.1876 150.903 12.0836 150.903 12.5315V23.2826H131.483V12.5315C131.483 12.0836 131.934 11.1876 132.838 11.1876L135.547 10.7397C135.999 10.7397 135.999 10.2917 135.999 10.2917C135.999 9.84374 135.547 9.84375 135.096 9.84375H131.031H126.515H122.45C121.998 9.84375 121.999 9.84374 121.547 10.2917C121.547 10.7397 121.547 10.7397 121.998 10.7397L124.708 11.1876C125.612 11.1876 126.063 11.6356 126.063 12.5315V36.2735C126.063 36.7215 125.16 37.6174 124.708 37.6174L121.998 38.0653C121.547 38.0653 121.547 38.5133 121.547 38.5133C121.547 38.9613 121.998 38.9613 122.45 38.9613H126.515H131.031H135.096C135.547 38.9613 135.547 38.9613 135.999 38.5133C135.999 38.0654 135.999 38.0653 135.547 38.0653L133.289 37.1694C132.386 37.1694 131.934 36.7214 131.934 35.8255V25.0745H151.355V35.8255C151.355 36.7214 150.903 37.1694 150 37.1694L146.838 38.0653C146.387 38.0653 146.387 38.5133 146.387 38.5133C146.387 38.9613 146.838 38.9613 147.29 38.9613H151.355H155.871H159.936C160.387 38.9613 160.387 38.9613 160.839 38.5133C160.387 38.0654 159.936 38.0653 159.936 38.0653Z"/>
<path d="M201.936 38.0653L200.13 37.6174C199.227 37.6174 198.323 36.7215 198.323 36.2735L186.129 9.84375H184.774L172.58 36.2735C172.129 37.1694 171.677 37.6174 170.774 37.6174L168.967 38.0653C168.516 38.0653 168.516 38.5133 168.516 38.5133C168.516 38.9613 168.967 38.9613 169.419 38.9613H178.452C178.903 38.9613 178.903 38.9613 179.355 38.5133C179.355 38.0654 179.355 38.0653 178.903 38.0653L176.645 37.6174C176.193 37.6174 175.742 37.1694 175.742 37.1694C175.742 36.7215 175.742 36.7215 175.742 36.2735L179.806 27.7622H191.097L194.71 35.8255C195.162 36.7214 194.259 37.6174 193.355 37.6174L190.646 38.0653C190.194 38.0653 190.194 38.5133 190.194 38.5133C190.194 38.9613 190.646 38.9613 191.097 38.9613H202.84C203.291 38.9613 203.291 38.9613 203.743 38.5133C202.388 38.0654 202.388 38.0653 201.936 38.0653ZM179.806 25.5224L184.323 15.2193L188.839 25.5224H179.806Z"/>
<path d="M72.775 23.731C72.775 21.9391 72.3234 20.1473 71.8717 18.3555C71.4201 17.0116 70.5168 16.1156 69.6136 14.7718C68.2587 12.9799 66.9038 12.084 65.5489 11.1881C64.194 10.2921 62.3875 9.84419 61.0326 9.39623C59.2261 8.94827 57.4196 8.94824 55.613 8.94824C55.1614 8.94824 55.1614 8.94824 54.7098 8.94824C54.2581 8.94824 54.2581 8.94824 53.8065 8.94824C52 8.94824 50.1935 8.94827 48.3869 9.39623C46.5804 9.84419 45.2255 10.2921 43.8706 11.1881C42.5157 12.084 41.1608 12.9799 39.8059 14.7718C38.9027 15.6677 37.9994 17.0116 37.5478 18.3555C37.0962 20.1473 36.6445 21.9391 36.6445 23.731V24.179V24.6269C36.6445 26.4188 37.0962 28.2106 37.5478 30.0025C37.9994 31.3464 38.9027 32.2423 39.8059 33.5861C41.1608 35.378 42.5157 36.2739 43.8706 37.1698C45.2255 38.0658 47.032 38.5137 48.3869 38.9617C50.1935 39.4097 52 39.4097 53.8065 39.4097C54.2581 39.4097 54.2581 39.4097 54.7098 39.4097C55.1614 39.4097 55.1614 39.4097 55.613 39.4097C57.4196 39.4097 59.2261 39.4097 61.0326 38.9617C62.8391 38.5137 64.194 38.0658 65.5489 37.1698C66.9038 36.2739 68.2587 35.378 69.6136 33.5861C70.5168 32.6902 71.4201 31.3464 71.8717 30.0025C72.3234 28.2106 72.775 26.4188 72.775 24.6269C72.775 24.6269 72.775 24.179 72.775 23.731C72.775 24.179 72.775 24.179 72.775 23.731ZM67.8071 24.179C67.8071 25.9708 67.3554 28.2106 66.9038 30.0025C66.4522 31.3464 65.5489 32.6902 64.194 34.0341C62.8391 35.378 61.4842 36.2739 59.6777 36.7219C57.8712 37.1699 56.0647 37.6178 54.2581 37.6178C52.4516 37.6178 50.6451 37.1699 48.8386 36.7219C47.032 36.2739 45.6771 35.378 44.3223 34.0341C42.9674 32.6902 42.0641 31.3464 41.6125 30.0025C40.7092 28.2106 40.7092 25.9708 40.7092 24.179C40.7092 22.3871 41.1608 20.1473 41.6125 18.3555C42.0641 17.0116 42.9674 15.6677 44.3223 14.3238C45.6771 12.9799 47.032 12.084 48.8386 11.636C50.6451 11.1881 52.4516 10.7401 54.2581 10.7401C56.0647 10.7401 57.8712 11.1881 59.6777 11.636C61.4842 12.084 62.8391 12.9799 64.194 14.3238C65.5489 15.6677 66.4522 17.0116 66.9038 18.3555C67.8071 20.1473 67.8071 22.3871 67.8071 24.179Z"/>
</svg>
