<svg width="28" height="28" viewBox="0 0 28 28" fill="none" xmlns="http://www.w3.org/2000/svg">
<g clip-path="url(#clip0_381_297)">
<path d="M0 14.0001C0 16.7534 0.794658 19.3201 2.15025 21.4668H25.8497C27.2053 19.3201 28 16.7534 28 14.0001C28 11.2468 27.2053 8.68011 25.8497 6.53345H2.15025C0.794658 8.68011 0 11.2468 0 14.0001Z" fill="#FFCE31"/>
<path d="M25.8947 6.53333C23.4172 2.61333 19.0232 0 14.0216 0C9.01989 0 4.6259 2.61333 2.14844 6.53333H25.8947ZM2.14844 21.4667C4.6259 25.3867 9.01989 28 14.0216 28C19.0232 28 23.4172 25.3867 25.8947 21.4667H2.14844Z" fill="#EE263A"/>
<path d="M3.36719 12.46H4.86301V13.3H3.36719V12.46ZM3.36719 18.62H4.90976V19.4133H3.36719V18.62Z" fill="#C8B100"/>
<path d="M3.22591 17.3132C3.08568 17.4066 2.99219 17.4999 2.99219 17.5466C2.99219 17.5932 3.03893 17.6399 3.13242 17.6866C3.22591 17.7332 3.3194 17.8266 3.27266 17.9199C3.36614 17.8266 3.41289 17.7332 3.41289 17.6399C3.41289 17.4999 3.3194 17.3599 3.22591 17.3132Z" fill="#EE263A"/>
<path d="M3.59766 13.3H4.67278V18.62H3.59766V13.3Z" fill="white"/>
<path d="M5.79516 15.2601C5.56143 15.1668 5.14073 15.0735 4.67329 15.0735C4.53305 15.0735 4.34608 15.0735 4.1591 15.1201C3.50467 15.2135 2.99048 15.4935 3.03723 15.6801L2.80351 15.1668C2.75676 14.9335 3.3177 14.6535 4.01886 14.5135C4.25259 14.4668 4.48631 14.4668 4.67329 14.4668C5.14073 14.4668 5.56143 14.5135 5.79516 14.6068V15.2601Z" fill="#EE263A"/>
<path d="M3.60013 15.9601C3.31966 15.9601 3.08594 15.8668 3.08594 15.7268C3.08594 15.6335 3.17943 15.4935 3.3664 15.4001H3.64687L3.60013 15.9601ZM4.67525 15.5401C4.86223 15.5868 5.00246 15.6335 5.09595 15.6801C5.1427 15.7268 4.95572 15.9135 4.67525 16.0535V15.5401Z" fill="#EE263A"/>
<path d="M2.89898 16.9868C2.85224 16.8935 3.17945 16.7068 3.60015 16.5668C3.78713 16.5202 3.92737 16.4268 4.16109 16.3335C4.72202 16.1002 5.18947 15.7735 5.09598 15.6802L5.18947 16.2402C5.23621 16.3335 4.86226 16.6135 4.30132 16.8935C4.11434 16.9868 3.78713 17.1268 3.60015 17.1735C3.27294 17.2668 2.99247 17.4535 2.99247 17.5002L2.89898 16.9868Z" fill="#EE263A"/>
<path d="M13.4139 12.46H14.9098V13.3H13.4139V12.46ZM13.3672 18.62H14.9098V19.4133H13.3672V18.62Z" fill="#C8B100"/>
<path d="M15.0503 17.3132C15.1905 17.4066 15.284 17.4999 15.284 17.5466C15.284 17.5932 15.2372 17.6399 15.1437 17.6866C15.0503 17.7799 14.9568 17.9199 15.0035 17.9666C14.91 17.8732 14.8633 17.7799 14.8633 17.6866C14.8633 17.4999 14.9568 17.3599 15.0503 17.3132Z" fill="#EE263A"/>
<path d="M13.6016 13.3H14.6767V18.62H13.6016V13.3Z" fill="white"/>
<path d="M12.4805 15.2601C12.7142 15.1668 13.1349 15.0735 13.6023 15.0735C13.7426 15.0735 13.9296 15.0735 14.1165 15.1201C14.771 15.2135 15.2851 15.4935 15.2384 15.6801L15.4721 15.1201C15.5189 14.8868 14.9579 14.6068 14.2568 14.4668H13.6023C13.1349 14.4668 12.7142 14.5135 12.4805 14.6068V15.2601Z" fill="#EE263A"/>
<path d="M14.6788 15.9599C14.9592 15.9599 15.193 15.8666 15.193 15.7266C15.193 15.6332 15.0995 15.4932 14.9125 15.3999H14.632L14.6788 15.9599ZM13.6036 15.5399C13.4167 15.5866 13.2764 15.6332 13.1829 15.6799C13.1362 15.7266 13.3232 15.9132 13.6036 16.0532V15.5399Z" fill="#EE263A"/>
<path d="M15.3794 16.9867C15.4261 16.8934 15.0989 16.7067 14.6782 16.5667C14.4912 16.5201 14.351 16.4267 14.1173 16.3334C13.5563 16.1001 13.0889 15.7734 13.1824 15.6801L13.0889 16.2401C13.0422 16.3334 13.4161 16.6134 13.977 16.8934C14.164 16.9867 14.4912 17.1267 14.6782 17.1734C15.0054 17.2667 15.2859 17.5001 15.2391 17.5467L15.3794 16.9867ZM9.11561 9.47339C10.0038 9.47339 11.8268 9.66006 12.4812 10.3134C11.7801 11.9934 10.6582 11.2934 9.11561 11.2934C7.61978 11.2934 6.45117 11.9934 5.75 10.3134C6.40442 9.66006 8.18072 9.47339 9.11561 9.47339Z" fill="#EE263A"/>
<path d="M11.4056 11.34C10.8447 11.0133 10.0033 10.9666 9.11512 10.9666C8.22697 10.9666 7.38557 11.06 6.82464 11.34L7.01161 12.1333C7.5258 12.2733 8.27372 12.3666 9.11512 12.3666C9.95652 12.3666 10.6577 12.2733 11.2186 12.1333L11.4056 11.34ZM12.2003 9.3333C12.0133 9.1933 11.6393 9.0533 11.3121 9.0533C11.1719 9.0533 11.0316 9.0533 10.8914 9.09997C10.8914 9.09997 10.6109 8.72663 9.95652 8.72663C9.7228 8.72663 9.53582 8.7733 9.34884 8.86663V8.81997C9.3021 8.72663 9.20861 8.6333 9.11512 8.6333C9.02163 8.6333 8.8814 8.7733 8.8814 8.86663V8.9133C8.69442 8.81997 8.50744 8.7733 8.27372 8.7733C7.61929 8.7733 7.33883 9.1933 7.33883 9.14663C7.19859 9.09997 7.05836 9.09997 6.91813 9.09997C4.76787 9.09997 5.843 10.5466 5.843 10.5466L6.07672 10.2666C5.56253 9.6133 6.02998 9.23997 6.96487 9.23997C7.1051 9.23997 7.19859 9.23997 7.29208 9.28663C6.96487 9.7533 7.57255 10.1733 7.57255 10.1733L7.71278 9.93997C7.38557 9.70663 7.33883 8.9133 8.27372 8.9133C8.50744 8.9133 8.69442 8.95997 8.8814 9.09997C8.8814 9.14663 8.83465 9.79997 8.78791 9.8933L9.16186 10.22L9.53582 9.8933C9.48908 9.7533 9.44233 9.14663 9.44233 9.09997C9.58257 9.00663 9.81629 8.9133 10.05 8.9133C11.0316 8.9133 11.0316 9.70663 10.6109 9.93997L10.7512 10.1733C10.7512 10.1733 11.2654 9.7533 11.0316 9.28663C11.1251 9.28663 11.2654 9.23997 11.3589 9.23997C12.4807 9.23997 12.5275 10.08 12.247 10.2666L12.434 10.5466C12.3405 10.5466 12.8547 9.8933 12.2003 9.3333Z" fill="#C8B100"/>
<path d="M8.83594 8.4465C8.83594 8.3065 8.97617 8.1665 9.11641 8.1665C9.30338 8.1665 9.39687 8.3065 9.39687 8.4465C9.39687 8.5865 9.25664 8.7265 9.11641 8.7265C8.97617 8.7265 8.83594 8.5865 8.83594 8.4465Z" fill="#005BBF"/>
<path d="M9.02292 7.65332V7.79332H8.88268V7.93332H9.02292V8.39999H8.83594V8.53999H9.39687L9.44362 8.44665L9.39687 8.39999H9.20989V7.93332H9.35013V7.79332H9.20989V7.65332H9.02292Z" fill="#C8B100"/>
<path d="M9.11575 12.2733C8.36783 12.2733 7.71341 12.18 7.19922 12.04C7.71341 11.9 8.36783 11.8066 9.11575 11.8066C9.86366 11.8066 10.5181 11.9 11.0323 12.04C10.5648 12.18 9.86366 12.2733 9.11575 12.2733Z" fill="#EE263A"/>
<path d="M9.16248 20.3467C8.27434 20.3467 7.43293 20.1133 6.68502 19.7867C6.12409 19.5067 5.79688 18.9933 5.79688 18.3867V16.1467H12.5281V18.3867C12.5281 18.9933 12.1541 19.5533 11.6399 19.7867C10.892 20.16 10.0506 20.3467 9.16248 20.3467ZM9.11574 12.4133H12.4813V16.1467H9.11574V12.4133Z" fill="white"/>
<path d="M9.16248 18.3867C9.16248 19.2734 8.41457 19.9734 7.47968 19.9734C6.54479 19.9734 5.79688 19.2734 5.79688 18.3867V16.1467H9.16248V18.3867Z" fill="#EE263A"/>
<path d="M6.49791 19.6932C6.5914 19.7399 6.73164 19.8332 6.91861 19.8799V16.0532H6.54466L6.49791 19.6932ZM5.75 18.3399C5.75 18.8066 5.93698 19.1799 6.12396 19.3666V16.0532H5.75V18.3399Z" fill="#C8B100"/>
<path d="M7.24609 19.9732H7.62005V16.0532H7.24609V19.9732Z" fill="#C7B500"/>
<path d="M7.99609 19.8799C8.13633 19.8332 8.32331 19.7399 8.41679 19.6932V16.0532H8.04284L7.99609 19.8799Z" fill="#C8B100"/>
<path d="M5.75 12.4133H9.11561V16.1467H5.75V12.4133Z" fill="#EE263A"/>
<path d="M8.78906 19.3668C8.97604 19.2268 9.11628 18.9001 9.16302 18.5268V16.1001H8.78906V19.3668Z" fill="#C8B100"/>
<path d="M12.5255 16.1466V18.3866C12.5255 19.2733 11.7776 19.9733 10.8427 19.9733C9.90781 19.9733 9.1599 19.2733 9.1599 18.3866V16.1466H12.5255ZM11.3101 13.0666C11.4504 13.3466 11.4504 14.0466 11.0297 13.9066C11.1232 13.9533 11.1699 14.2799 11.3101 14.4666C11.5439 14.7466 11.8243 14.5133 11.7776 14.1866C11.6841 13.6733 11.7308 13.3466 11.8243 12.8333C11.8243 12.8799 12.0581 12.8799 12.1515 12.7866C12.1048 12.9266 12.0581 13.1133 12.1515 13.1133C12.0581 13.2533 11.8243 13.4866 11.7776 13.6266C11.7308 13.9533 12.245 14.5599 11.6841 14.6999C11.3101 14.7933 11.5439 15.0733 11.6841 15.2133C11.6841 15.2133 11.4971 15.8199 11.5906 15.7733C11.2167 15.9133 11.3101 15.5866 11.3101 15.5866C11.4971 15.0266 10.9829 14.9799 11.0297 14.8866C10.5622 14.8399 11.0764 15.3066 10.6557 15.3066C10.5622 15.3066 10.3753 15.3999 10.3753 15.3999C9.86106 15.3533 10.1415 14.8866 10.3285 14.9333C10.4687 14.9799 10.609 15.2133 10.609 14.8866C10.609 14.8866 10.3753 14.5133 10.9829 14.5133C10.7492 14.5133 10.609 14.3266 10.5155 14.0933C10.422 14.1399 10.2818 14.3733 9.76757 14.4199C9.76757 14.4199 9.62734 13.9066 9.76757 13.9999C9.95455 14.0933 10.048 14.0933 10.235 13.9066C10.1415 13.7666 9.5806 13.5799 9.67409 13.2533C9.67409 13.1599 9.95455 13.0199 9.95455 13.0199C9.90781 13.2533 10.048 13.4866 10.3285 13.4866C10.7025 13.5333 10.5622 13.3933 10.609 13.2999C10.6557 13.2066 10.9362 13.3466 10.8427 13.1133C10.8427 13.0666 10.5155 13.0199 10.609 12.8799C10.796 12.6466 11.0764 12.8333 11.3101 13.0666ZM9.1599 19.8799L9.06641 19.6466L9.1599 19.3666L9.25338 19.6466L9.1599 19.8799Z" fill="#EE263A"/>
<path d="M6.77656 13.2066V13.4399H6.87005V13.6266H6.63633V14.0933H6.77656V15.1199H6.49609V15.6333H8.41262V15.1199H8.1789V14.0933H8.27239V13.6266H8.03867V13.4399H8.1789V13.2066H7.71145V13.4399H7.80494V13.6266H7.57122V13.0666H7.71145V12.8333H7.19726V13.0666H7.3375V13.6266H7.10377V13.4399H7.19726V13.2066H6.77656ZM12.0587 18.9466V16.6133H9.62798V18.9466L10.7498 19.4599H10.8901L12.0587 18.9466ZM10.7498 16.7999V17.5933L9.95519 16.7999H10.7498ZM9.76821 16.8466L10.7031 17.7799L9.76821 18.7133V16.8466ZM9.8617 18.8999L10.7498 18.0133V19.3199L9.8617 18.8999ZM10.8901 19.2733V17.9666L11.7782 18.8533L10.8901 19.2733ZM11.8717 18.7133L10.9368 17.7799L11.8717 16.8466V18.7133ZM10.8901 16.7999H11.6847L10.8901 17.5933V16.7999Z" fill="#C8B100"/>
<path d="M8.03906 16.1001C8.03906 15.4001 8.50651 14.8867 9.11419 14.8867C9.72187 14.8867 10.1893 15.4467 10.1893 16.1001C10.1893 16.7534 9.72187 17.3134 9.11419 17.3134C8.50651 17.3134 8.03906 16.8001 8.03906 16.1001Z" fill="#EE263A"/>
<path d="M8.36719 16.1C8.36719 15.5867 8.6944 15.2134 9.1151 15.2134C9.5358 15.2134 9.86301 15.6334 9.86301 16.1C9.86301 16.6134 9.5358 16.9867 9.1151 16.9867C8.74114 17.0334 8.36719 16.6134 8.36719 16.1Z" fill="#005BBF"/>
<path d="M8.78854 15.4934L8.60156 16.0067L8.7418 16.0534L8.64831 16.2401H8.92877L8.83529 16.0534L8.97552 16.0067L8.78854 15.4934ZM9.48971 15.4934L9.30273 16.0067L9.44297 16.0534L9.34948 16.2401H9.62994L9.5832 16.0534L9.72343 16.0067L9.48971 15.4934ZM9.1625 16.1001L8.92877 16.6134L9.06901 16.6601L9.02226 16.8467H9.25599L9.20924 16.6601L9.34948 16.6134L9.1625 16.1001Z" fill="#C8B100"/>
</g>
<defs>
<clipPath id="clip0_381_297">
<rect width="28" height="28" fill="white"/>
</clipPath>
</defs>
</svg>
