<svg width="50" height="50" viewBox="0 0 50 50" xmlns="http://www.w3.org/2000/svg">
<path fill-rule="evenodd" clip-rule="evenodd" d="M25 50C38.8071 50 50 38.8071 50 25C50 11.1929 38.8071 0 25 0C11.1929 0 0 11.1929 0 25C0 38.8071 11.1929 50 25 50ZM20.418 36.4585C21.026 36.4585 21.3039 36.188 21.6397 35.861L21.668 35.8335L24.6689 32.9155L30.9128 37.5285C32.0624 38.1629 32.8922 37.8344 33.1786 36.4611L37.2796 17.1355C37.6995 15.4521 36.6379 14.6886 35.5381 15.188L11.4568 24.4736C9.81307 25.1329 9.82265 26.05 11.1572 26.4586L17.337 28.3874L31.6439 19.3613C32.3193 18.9518 32.9392 19.172 32.4304 19.6235L20.8378 30.085L20.8431 30.0889L20.418 36.4585Z"/>
</svg>
