<svg width="24" height="24" viewBox="0 0 24 24" fill="none" xmlns="http://www.w3.org/2000/svg">
<path d="M21.5634 3.12204C21.3822 2.96508 21.1617 2.86035 20.9255 2.81907C20.6894 2.77778 20.4464 2.80149 20.2227 2.88767L2.91648 9.68454C2.65094 9.78742 2.42606 9.97386 2.27578 10.2157C2.12549 10.4576 2.05796 10.7418 2.08336 11.0255C2.10876 11.3091 2.22572 11.5768 2.41659 11.7881C2.60746 11.9995 2.86189 12.143 3.14148 12.197L7.68836 13.1064V18.7502C7.68866 19.0088 7.76535 19.2615 7.90879 19.4766C8.05223 19.6918 8.25603 19.8598 8.49461 19.9595C8.65548 20.0251 8.82716 20.0601 9.00086 20.0627C9.17337 20.0637 9.34436 20.0303 9.50375 19.9642C9.66314 19.8982 9.80772 19.801 9.92898 19.6783L12.4884 17.1189L16.3134 20.4845C16.5503 20.697 16.8576 20.8139 17.1759 20.8127C17.313 20.8138 17.4493 20.7916 17.579 20.747C17.7955 20.6782 17.99 20.5536 18.1431 20.3858C18.2961 20.2179 18.4023 20.0127 18.4509 19.7908L21.9852 4.40642C22.038 4.1742 22.0267 3.93199 21.9524 3.70573C21.8781 3.47948 21.7436 3.27771 21.5634 3.12204ZM3.21648 10.922C3.20993 10.8825 3.21764 10.842 3.23825 10.8076C3.25887 10.7733 3.29103 10.7474 3.32898 10.7345L17.8134 5.04392L8.11961 12.047L3.36648 11.0908C3.32505 11.0862 3.2868 11.0664 3.2591 11.0352C3.23141 11.004 3.21622 10.9637 3.21648 10.922ZM9.13211 18.8814C9.10611 18.9087 9.07214 18.927 9.03508 18.9337C8.99802 18.9405 8.95978 18.9353 8.92586 18.9189C8.8929 18.9045 8.86477 18.881 8.84482 18.8511C8.82487 18.8211 8.81395 18.7861 8.81336 18.7502V13.8845L11.6352 16.3783L9.13211 18.8814ZM17.3634 19.5377C17.3569 19.5702 17.342 19.6004 17.3201 19.6253C17.2982 19.6502 17.2701 19.6688 17.2387 19.6793C17.2072 19.6898 17.1736 19.6917 17.1411 19.685C17.1087 19.6782 17.0786 19.663 17.054 19.6408L9.15086 12.6845L20.8696 4.22829L17.3634 19.5377Z" fill="white"/>
</svg>
