<svg width="28" height="27" viewBox="0 0 28 27" xmlns="http://www.w3.org/2000/svg">
<path d="M13.9974 26.9997C10.4612 26.9997 7.06979 25.5949 4.56931 23.0944C2.06882 20.5939 0.664063 17.2026 0.664062 13.6663C0.664063 10.1301 2.06882 6.73874 4.56931 4.23825C7.06979 1.73777 10.4612 0.333008 13.9974 0.333008C17.5336 0.333008 20.925 1.73777 23.4255 4.23825C25.926 6.73874 27.3307 10.1301 27.3307 13.6663C27.3307 17.2026 25.926 20.5939 23.4255 23.0944C20.925 25.5949 17.5336 26.9997 13.9974 26.9997ZM9.85073 15.2263H9.86406L11.0241 19.0397C11.1841 19.453 11.3841 19.533 11.6374 19.493C11.8774 19.4663 12.0107 19.333 12.1707 19.173L13.7707 17.6397L17.1574 20.1597C17.7841 20.5063 18.2241 20.3197 18.3841 19.5863L20.5974 9.15967C20.8374 8.18634 20.4107 7.79967 19.6641 8.09301L6.66406 13.133C5.78406 13.4797 5.78406 13.9863 6.50406 14.1997L9.8374 15.2397L9.85073 15.2263Z" />
</svg>
