<svg width="28" height="28" viewBox="0 0 28 28" fill="none" xmlns="http://www.w3.org/2000/svg">
<path d="M14 28C21.732 28 28 21.732 28 14C28 6.26801 21.732 0 14 0C6.26801 0 0 6.26801 0 14C0 21.732 6.26801 28 14 28Z" fill="#F3162C"/>
<path d="M18.3405 17.2667L18.3872 14.7467L15.8672 14.0001L18.3872 13.2534L18.3405 10.7334L19.8805 12.7401L22.4005 11.9934L20.8605 14.0001L22.4005 16.0067L19.8805 15.2601L18.3405 17.2667Z" fill="white"/>
<path d="M14.5616 19.6C11.4816 19.6 9.00823 17.08 9.00823 14C9.00823 10.92 11.4816 8.4 14.5616 8.4C15.7282 8.4 16.8016 8.77333 17.7349 9.38C16.4749 7.93333 14.6082 7 12.5082 7C8.68156 7 5.60156 10.1267 5.60156 14C5.60156 17.8733 8.68156 21 12.5082 21C14.6082 21 16.4749 20.0667 17.7349 18.62C16.8482 19.2267 15.7749 19.6 14.5616 19.6Z" fill="white"/>
</svg>
