<svg width="28" height="23" viewBox="0 0 28 23" xmlns="http://www.w3.org/2000/svg">
<path d="M27.3307 3.53337C26.3307 3.97337 25.2774 4.25337 24.1841 4.37337C25.3307 3.7067 26.1841 2.64004 26.5841 1.40004C25.5174 2.0267 24.3441 2.4667 23.1174 2.7067C22.501 2.05245 21.7334 1.55947 20.882 1.27101C20.0307 0.982542 19.1215 0.907409 18.2344 1.0522C17.3472 1.19699 16.5091 1.55728 15.7936 2.10146C15.0782 2.64564 14.5072 3.35708 14.1307 4.17337C13.6389 5.25071 13.5215 6.46163 13.7974 7.61337C11.6309 7.5038 9.51044 6.94739 7.56926 5.97909C5.62808 5.0108 3.90811 3.65154 2.5174 1.9867C1.80381 3.17034 1.58147 4.58613 1.89789 5.93153C2.2143 7.27692 3.04438 8.4452 4.21073 9.1867C3.34206 9.15844 2.49233 8.92545 1.73073 8.5067V8.57337C1.73204 9.82117 2.17083 11.029 2.97073 11.9867C3.77073 12.9467 4.89073 13.6 6.13073 13.8534C5.32145 14.0696 4.47397 14.1015 3.65073 13.9467C4.01836 15.0163 4.70492 15.9476 5.61797 16.6151C6.53101 17.2826 7.62667 17.6542 8.7574 17.68C6.45736 19.4576 3.54968 20.2576 0.664062 19.9067C3.1732 21.4939 6.08171 22.3355 9.05073 22.3334C11.1407 22.3645 13.215 21.968 15.1462 21.1682C17.0774 20.3684 18.8246 19.1823 20.2806 17.6826C21.7367 16.1828 22.8707 14.4013 23.613 12.4473C24.3553 10.4933 24.6903 8.4082 24.5974 6.32004C25.6641 5.56004 26.5974 4.61337 27.3307 3.53337Z"/>
</svg>
