<svg viewBox="0 0 28 32" xmlns="http://www.w3.org/2000/svg">
<path d="M13.974 1.33334C10.4377 1.33334 7.04635 2.7381 4.54587 5.23859C2.04538 7.73907 0.640625 11.1305 0.640625 14.6667C0.640625 18.2029 2.04538 21.5943 4.54587 24.0948C7.04635 26.5953 10.4377 28 13.974 28C17.5102 28 20.9016 26.5953 23.402 24.0948C25.9025 21.5943 27.3073 18.2029 27.3073 14.6667C27.3073 11.1305 25.9025 7.73907 23.402 5.23859C20.9016 2.7381 17.5102 1.33334 13.974 1.33334ZM19.1073 16.3733C19.1073 16.3733 20.2806 17.5467 20.574 18.08L20.5873 18.1067C20.7073 18.3067 20.7206 18.4667 20.6806 18.5733C20.574 18.7733 20.2406 18.8667 20.134 18.8667H18.0406C17.9073 18.8667 17.6006 18.8267 17.2406 18.5867C16.9473 18.3867 16.6673 18.0533 16.4006 17.7467C16.0006 17.28 15.654 16.8667 15.294 16.8667C15.254 16.8667 15.2006 16.8667 15.1606 16.8933C14.894 16.9733 14.5606 17.36 14.5606 18.36C14.5606 18.6933 14.294 18.8667 14.134 18.8667H13.174C12.854 18.8667 11.1606 18.76 9.65396 17.1733C7.81396 15.24 6.17396 11.3467 6.14729 11.3067C6.05396 11.0667 6.26729 10.9333 6.49396 10.9333H8.60062C8.88062 10.9333 8.97396 11.0933 9.04062 11.2533C9.12062 11.4267 9.38729 12.1333 9.84062 12.92C10.574 14.2 11.0273 14.72 11.3873 14.72C11.454 14.72 11.5206 14.7067 11.574 14.68C12.0406 14.4133 11.9606 12.7467 11.934 12.3867C11.934 12.3333 11.934 11.64 11.694 11.32C11.5323 11.1252 11.3044 10.997 11.054 10.96C11.1224 10.8599 11.2139 10.7776 11.3206 10.72C11.7972 10.5623 12.2999 10.4989 12.8006 10.5333H13.134C13.7473 10.5333 13.9073 10.5867 14.134 10.64C14.6006 10.7467 14.614 11.04 14.574 12.0533L14.5473 13.0533V13.32C14.5206 13.84 14.5073 14.4267 14.8673 14.6533C14.9206 14.6933 14.974 14.7067 15.0273 14.7067C15.1606 14.7067 15.534 14.7067 16.574 12.9467C17.014 12.16 17.374 11.24 17.4006 11.1733C17.414 11.1333 17.4806 11.0267 17.5473 10.9867C17.6006 10.9467 17.6806 10.9467 17.7206 10.9467H20.2006C20.4673 10.9467 20.654 10.9867 20.6806 11.08C20.7473 11.2533 20.6806 11.7467 19.5473 13.28L19.0406 13.9467C18.014 15.28 18.014 15.36 19.1073 16.3733Z"/>
</svg>
