<svg width="50" height="50" viewBox="0 0 50 50" xmlns="http://www.w3.org/2000/svg">
<path fill-rule="evenodd" clip-rule="evenodd" d="M50 25C50 38.8071 38.8071 50 25 50C11.1929 50 0 38.8071 0 25C0 11.1929 11.1929 0 25 0C38.8071 0 50 11.1929 50 25ZM25.8166 38.9092H25.8227C34.019 38.9058 40.6851 32.2381 40.6884 24.0436C40.69 20.0715 39.1451 16.3366 36.3385 13.5268C33.5318 10.7169 29.7994 9.16871 25.8226 9.16699C17.6287 9.16699 10.9599 15.8354 10.9567 24.0318C10.9556 26.6519 11.6401 29.2092 12.941 31.4637L10.832 39.167L18.7126 37.0998C20.8839 38.2841 23.3286 38.9083 25.8166 38.9092Z"/>
<path fill-rule="evenodd" clip-rule="evenodd" d="M19.5272 34.6752L19.076 34.4074L14.3995 35.6342L15.6478 31.0747L15.354 30.6072C14.1171 28.64 13.4639 26.3663 13.4648 24.0316C13.4675 17.2191 19.0104 11.6768 25.8259 11.6768C29.1261 11.6779 32.2284 12.9647 34.5612 15.3002C36.894 17.6358 38.178 20.7401 38.1767 24.0416C38.174 30.8546 32.6312 36.3975 25.821 36.3975H25.816C23.5988 36.3966 21.4242 35.801 19.5272 34.6752ZM32.7999 27.2434C33.059 27.3686 33.2339 27.4532 33.3086 27.5779C33.4014 27.7327 33.4014 28.4764 33.0921 29.3442C32.7824 30.2119 31.2985 31.0038 30.5848 31.1104C29.9449 31.206 29.135 31.246 28.2452 30.9632C27.7057 30.792 27.0139 30.5635 26.1277 30.1807C22.6455 28.6771 20.2922 25.3021 19.8474 24.6642C19.8163 24.6195 19.7945 24.5883 19.7823 24.572L19.7793 24.568C19.5828 24.3058 18.2656 22.5484 18.2656 20.7296C18.2656 19.0186 19.1061 18.1218 19.4929 17.709C19.5195 17.6807 19.5438 17.6547 19.5657 17.6309C19.9061 17.259 20.3086 17.166 20.5562 17.166C20.8038 17.166 21.0517 17.1683 21.2681 17.1792C21.2948 17.1805 21.3226 17.1804 21.3513 17.1802C21.5677 17.1789 21.8376 17.1773 22.1038 17.8168C22.2062 18.0629 22.3561 18.4277 22.5141 18.8125C22.8338 19.5907 23.1869 20.4504 23.249 20.5748C23.3419 20.7608 23.4038 20.9776 23.28 21.2256C23.2614 21.2628 23.2442 21.2979 23.2278 21.3314C23.1348 21.5213 23.0664 21.6609 22.9086 21.8452C22.8465 21.9177 22.7824 21.9958 22.7182 22.0739C22.5904 22.2295 22.4627 22.3851 22.3514 22.496C22.1654 22.6812 21.9719 22.8822 22.1885 23.254C22.4052 23.6259 23.1507 24.8422 24.2549 25.8272C25.4419 26.886 26.4736 27.3335 26.9965 27.5603C27.0986 27.6046 27.1814 27.6404 27.242 27.6708C27.6133 27.8568 27.83 27.8257 28.0467 27.5779C28.2634 27.33 28.9753 26.4932 29.2228 26.1214C29.4704 25.7497 29.7182 25.8116 30.0586 25.9355C30.3991 26.0596 32.2253 26.9581 32.5968 27.144C32.6693 27.1803 32.7371 27.213 32.7999 27.2434Z"/>
</svg>
