<svg width="28" height="22" viewBox="0 0 28 22" xmlns="http://www.w3.org/2000/svg">
<path d="M26.7174 3.33333C27.3307 5.70667 27.3307 10.6667 27.3307 10.6667C27.3307 10.6667 27.3307 15.6267 26.7174 18C26.3841 19.32 25.3841 20.3467 24.1441 20.6933C21.8641 21.3333 13.9974 21.3333 13.9974 21.3333C13.9974 21.3333 6.13073 21.3333 3.86406 20.6933C3.23504 20.5098 2.66515 20.1645 2.21127 19.6919C1.75738 19.2193 1.43538 18.6359 1.2774 18C0.664063 15.6267 0.664062 10.6667 0.664062 10.6667C0.664062 10.6667 0.664063 5.70667 1.2774 3.33333C1.61073 2.01333 2.61073 0.986667 3.85073 0.64C6.17006 3.97364e-08 13.9974 0 13.9974 0C13.9974 0 21.8641 3.97364e-08 24.1307 0.64C24.7598 0.823541 25.3296 1.16884 25.7835 1.64144C26.2374 2.11404 26.5594 2.69741 26.7174 3.33333ZM11.3307 15.3333L19.3307 10.6667L11.3307 6V15.3333Z"/>
</svg>
